<svg width="271" height="76" viewBox="0 0 271 76" fill="none" xmlns="http://www.w3.org/2000/svg">
<path d="M85.7309 32.4319H80.9979C80.4199 32.4319 79.9356 32.2288 79.5451 31.8226C79.1546 31.4165 78.9594 30.9323 78.9594 30.3699C78.9594 29.8076 79.1546 29.3233 79.5451 28.9172C79.9356 28.4954 80.4199 28.2846 80.9979 28.2846L87.7694 28.3314C88.363 28.3314 88.8707 28.5267 89.2925 28.9172C89.7142 29.2921 89.9251 29.7763 89.9251 30.3699V37.7273C89.9251 38.0553 89.8548 38.3443 89.7142 38.5942C89.5892 38.8442 89.4174 39.0785 89.1987 39.2972C87.4805 40.8749 85.6606 42.0074 83.7393 42.6947C81.8336 43.382 79.8654 43.7256 77.8347 43.7256C76.4444 43.7256 75.101 43.5382 73.8045 43.1633C72.508 42.7884 71.2896 42.2651 70.1493 41.5934C69.0246 40.9217 67.9858 40.1094 67.0329 39.1566C66.0957 38.2037 65.2912 37.1571 64.6195 36.0168C63.9478 34.8609 63.4245 33.619 63.0497 32.2913C62.6748 30.9635 62.4873 29.5889 62.4873 28.1674C62.4873 26.7459 62.6669 25.3713 63.0262 24.0435C63.3855 22.7158 63.901 21.4739 64.5727 20.318C65.2444 19.1464 66.041 18.0842 66.9626 17.1314C67.8999 16.1785 68.9465 15.3584 70.1024 14.6711C71.2583 13.9838 72.5002 13.4527 73.8279 13.0778C75.1557 12.6873 76.5459 12.492 77.9987 12.492C80.1543 12.492 82.1616 12.8825 84.0205 13.6636C85.8793 14.4446 87.5898 15.6083 89.1519 17.1548C89.558 17.5922 89.7611 18.0764 89.7611 18.6075C89.7611 18.8887 89.6986 19.1542 89.5736 19.4042C89.4643 19.6385 89.3081 19.8494 89.105 20.0368C88.9176 20.2243 88.6911 20.3727 88.4255 20.482C88.1756 20.5914 87.91 20.646 87.6288 20.646C87.3789 20.646 87.129 20.5992 86.8791 20.5054C86.6447 20.4117 86.4261 20.2633 86.223 20.0602C85.0827 18.9356 83.8096 18.092 82.4037 17.5297C80.9979 16.9673 79.5373 16.6862 78.0221 16.6862C76.4913 16.6862 75.0307 16.983 73.6405 17.5766C72.2659 18.1545 71.0553 18.959 70.0087 19.99C68.9777 21.0053 68.1576 22.2159 67.5484 23.6218C66.9392 25.012 66.6346 26.5194 66.6346 28.144C66.6346 29.6748 66.9236 31.1353 67.5016 32.5256C68.0795 33.9002 68.8762 35.1108 69.8915 36.1574C70.9069 37.204 72.1019 38.0397 73.4765 38.6645C74.8667 39.2893 76.3585 39.6018 77.9518 39.6018C79.3733 39.6018 80.7401 39.3909 82.0523 38.9691C83.3644 38.5474 84.5906 37.8366 85.7309 36.8369V32.4319Z" fill="#05A93D"/>
<path d="M94.1895 32.8068C94.1895 31.1666 94.502 29.6201 95.1268 28.1674C95.7516 26.7147 96.603 25.4494 97.6808 24.3716C98.7586 23.2781 100.016 22.419 101.453 21.7941C102.906 21.1537 104.452 20.8335 106.093 20.8335H106.21C106.913 20.8335 107.444 21.0287 107.803 21.4193C108.178 21.8098 108.365 22.3018 108.365 22.8954C108.365 23.489 108.154 23.981 107.733 24.3716C107.311 24.7621 106.803 24.9573 106.21 24.9573H106.093C105.03 24.9573 104.031 25.1682 103.093 25.59C102.156 25.9961 101.328 26.5585 100.61 27.277C99.9067 27.98 99.3444 28.8078 98.9226 29.7607C98.5165 30.7136 98.3134 31.7289 98.3134 32.8068V41.3825C98.3134 41.9761 98.1182 42.4682 97.7276 42.8587C97.3527 43.2492 96.8841 43.4445 96.3218 43.4445C96.0406 43.4445 95.7672 43.3976 95.5017 43.3039C95.2518 43.1945 95.0253 43.0461 94.8222 42.8587C94.6347 42.6712 94.4785 42.4525 94.3536 42.2026C94.2442 41.9527 94.1895 41.6793 94.1895 41.3825V32.8068Z" fill="#05A93D"/>
<path d="M112.981 32.2913C112.981 33.291 113.169 34.2361 113.544 35.1264C113.934 36.0012 114.457 36.7744 115.113 37.4461C115.77 38.1022 116.535 38.6255 117.41 39.016C118.3 39.3909 119.253 39.5783 120.268 39.5783C121.299 39.5783 122.252 39.3909 123.127 39.016C124.017 38.6255 124.791 38.1022 125.447 37.4461C126.103 36.7744 126.618 36.0012 126.993 35.1264C127.368 34.2361 127.555 33.291 127.555 32.2913C127.555 31.2915 127.368 30.3543 126.993 29.4795C126.618 28.5892 126.103 27.8159 125.447 27.1599C124.791 26.5038 124.017 25.9883 123.127 25.6134C122.252 25.2229 121.299 25.0276 120.268 25.0276C119.253 25.0276 118.3 25.2229 117.41 25.6134C116.535 25.9883 115.77 26.5038 115.113 27.1599C114.457 27.8159 113.934 28.5892 113.544 29.4795C113.169 30.3543 112.981 31.2915 112.981 32.2913ZM108.834 32.2913C108.834 30.7136 109.131 29.2296 109.724 27.8394C110.334 26.4491 111.154 25.2385 112.185 24.2075C113.231 23.161 114.442 22.3409 115.816 21.7473C117.207 21.1381 118.691 20.8335 120.268 20.8335C121.862 20.8335 123.353 21.1381 124.744 21.7473C126.134 22.3409 127.345 23.161 128.375 24.2075C129.406 25.2385 130.219 26.4491 130.812 27.8394C131.406 29.2296 131.703 30.7136 131.703 32.2913C131.703 33.869 131.406 35.3529 130.812 36.7432C130.219 38.1334 129.406 39.344 128.375 40.375C127.345 41.406 126.134 42.226 124.744 42.8353C123.353 43.4288 121.862 43.7256 120.268 43.7256C118.691 43.7256 117.207 43.4288 115.816 42.8353C114.442 42.226 113.231 41.406 112.185 40.375C111.154 39.344 110.334 38.1334 109.724 36.7432C109.131 35.3529 108.834 33.869 108.834 32.2913Z" fill="#05A93D"/>
<path d="M134.819 22.8954C134.819 22.3174 135.014 21.8332 135.405 21.4427C135.811 21.0365 136.303 20.8335 136.881 20.8335C137.443 20.8335 137.928 21.0365 138.334 21.4427C138.74 21.8332 138.943 22.3174 138.943 22.8954V32.8302C138.959 33.7674 139.138 34.65 139.482 35.4779C139.841 36.2902 140.318 37.0009 140.911 37.6101C141.52 38.2193 142.231 38.7036 143.043 39.0629C143.856 39.4065 144.738 39.5783 145.691 39.5783C146.644 39.5783 147.503 39.3987 148.268 39.0394C149.05 38.6801 149.713 38.1881 150.26 37.5633C150.807 36.9384 151.229 36.2121 151.525 35.3842C151.838 34.5407 151.994 33.6425 151.994 32.6896V22.8954C151.994 22.6142 152.049 22.3487 152.158 22.0988C152.283 21.8488 152.439 21.6301 152.627 21.4427C152.814 21.2552 153.033 21.1068 153.283 20.9975C153.548 20.8881 153.822 20.8335 154.103 20.8335C154.696 20.8335 155.181 21.0365 155.556 21.4427C155.946 21.8332 156.141 22.3174 156.141 22.8954V32.5959V32.713C156.141 34.2282 155.876 35.6575 155.345 37.0009C154.829 38.3287 154.111 39.4924 153.189 40.4921C152.267 41.4919 151.166 42.2807 149.885 42.8587C148.604 43.4366 147.206 43.7256 145.691 43.7256C144.16 43.7256 142.731 43.4366 141.403 42.8587C140.091 42.2807 138.943 41.4919 137.959 40.4921C136.99 39.4924 136.225 38.3287 135.663 37.0009C135.1 35.6575 134.819 34.2282 134.819 32.713V22.8954Z" fill="#05A93D"/>
<path d="M159.843 31.9632V31.8695C159.843 30.3543 160.117 28.925 160.664 27.5816C161.226 26.2382 161.991 25.0667 162.96 24.067C163.928 23.0672 165.069 22.2784 166.381 21.7004C167.693 21.1225 169.107 20.8335 170.622 20.8335C172.153 20.8335 173.574 21.1225 174.886 21.7004C176.214 22.2784 177.362 23.0672 178.331 24.067C179.315 25.0667 180.08 26.2382 180.627 27.5816C181.189 28.925 181.47 30.3543 181.47 31.8695V31.9867V41.406C181.47 41.9995 181.275 42.4916 180.885 42.8821C180.494 43.257 180.01 43.4445 179.432 43.4445C178.854 43.4445 178.362 43.257 177.956 42.8821C177.55 42.4916 177.346 41.9995 177.346 41.406V31.9632V31.9164C177.331 30.9635 177.151 30.0731 176.808 29.2452C176.464 28.4017 175.987 27.6675 175.378 27.0427C174.785 26.4179 174.082 25.9258 173.269 25.5665C172.457 25.1917 171.575 25.0042 170.622 25.0042C169.669 25.0042 168.786 25.1838 167.974 25.5431C167.177 25.8868 166.482 26.371 165.889 26.9958C165.295 27.6207 164.826 28.3548 164.483 29.1984C164.155 30.0263 163.991 30.9166 163.991 31.8695V41.406C163.991 41.9995 163.795 42.4916 163.405 42.8821C163.03 43.257 162.554 43.4445 161.976 43.4445C161.694 43.4445 161.421 43.3976 161.156 43.3039C160.906 43.1945 160.679 43.0539 160.476 42.8821C160.289 42.6947 160.132 42.476 160.007 42.226C159.898 41.9761 159.843 41.7028 159.843 41.406V31.9632Z" fill="#05A93D"/>
<path d="M184.751 32.2913C184.751 30.7136 185.047 29.2296 185.641 27.8394C186.25 26.4491 187.07 25.2385 188.101 24.2075C189.148 23.161 190.358 22.3409 191.733 21.7473C193.123 21.1381 194.607 20.8335 196.185 20.8335C197.122 20.8335 197.966 20.9272 198.716 21.1146C199.465 21.3021 200.129 21.5755 200.707 21.9347C201.301 22.294 201.824 22.7314 202.277 23.2469C202.73 23.7624 203.128 24.3481 203.472 25.0042V6.1603C203.472 5.55109 203.667 5.04342 204.058 4.63728C204.448 4.21552 204.94 4.00464 205.534 4.00464C206.128 4.00464 206.62 4.21552 207.01 4.63728C207.416 5.04342 207.619 5.55109 207.619 6.1603V32.2913V32.4319C207.604 33.9939 207.291 35.4623 206.682 36.8369C206.089 38.1959 205.276 39.3909 204.245 40.4219C203.214 41.4372 202.004 42.2417 200.614 42.8353C199.239 43.4288 197.763 43.7256 196.185 43.7256C194.607 43.7256 193.123 43.4288 191.733 42.8353C190.358 42.226 189.148 41.406 188.101 40.375C187.07 39.344 186.25 38.1334 185.641 36.7432C185.047 35.3529 184.751 33.869 184.751 32.2913ZM188.898 32.2913C188.898 33.291 189.085 34.2361 189.46 35.1264C189.851 36.0012 190.374 36.7744 191.03 37.4461C191.686 38.1022 192.452 38.6255 193.326 39.016C194.217 39.3909 195.17 39.5783 196.185 39.5783C197.216 39.5783 198.169 39.3909 199.044 39.016C199.934 38.6255 200.707 38.1022 201.363 37.4461C202.019 36.7744 202.535 36.0012 202.91 35.1264C203.285 34.2361 203.472 33.291 203.472 32.2913C203.472 31.2915 203.285 30.3543 202.91 29.4795C202.535 28.5892 202.019 27.8159 201.363 27.1599C200.707 26.5038 199.934 25.9883 199.044 25.6134C198.169 25.2229 197.216 25.0276 196.185 25.0276C195.17 25.0276 194.217 25.2229 193.326 25.6134C192.452 25.9883 191.686 26.5038 191.03 27.1599C190.374 27.8159 189.851 28.5892 189.46 29.4795C189.085 30.3543 188.898 31.2915 188.898 32.2913Z" fill="#05A93D"/>
<path d="M222.639 22.8954C222.639 22.3174 222.834 21.8332 223.224 21.4427C223.631 21.0365 224.123 20.8335 224.701 20.8335C225.263 20.8335 225.747 21.0365 226.153 21.4427C226.56 21.8332 226.763 22.3174 226.763 22.8954V32.8302C226.778 33.7674 226.958 34.65 227.301 35.4779C227.661 36.2902 228.137 37.0009 228.731 37.6101C229.34 38.2193 230.051 38.7036 230.863 39.0629C231.675 39.4065 232.558 39.5783 233.511 39.5783C234.464 39.5783 235.323 39.3987 236.088 39.0394C236.869 38.6801 237.533 38.1881 238.08 37.5633C238.627 36.9384 239.048 36.2121 239.345 35.3842C239.657 34.5407 239.814 33.6425 239.814 32.6896V22.8954C239.814 22.6142 239.868 22.3487 239.978 22.0988C240.103 21.8488 240.259 21.6301 240.446 21.4427C240.634 21.2552 240.852 21.1068 241.102 20.9975C241.368 20.8881 241.641 20.8335 241.922 20.8335C242.516 20.8335 243 21.0365 243.375 21.4427C243.766 21.8332 243.961 22.3174 243.961 22.8954V32.5959V32.713C243.961 34.2282 243.695 35.6575 243.164 37.0009C242.649 38.3287 241.93 39.4924 241.009 40.4921C240.087 41.4919 238.986 42.2807 237.705 42.8587C236.424 43.4366 235.026 43.7256 233.511 43.7256C231.98 43.7256 230.551 43.4366 229.223 42.8587C227.911 42.2807 226.763 41.4919 225.778 40.4921C224.81 39.4924 224.045 38.3287 223.482 37.0009C222.92 35.6575 222.639 34.2282 222.639 32.713V22.8954Z" fill="#05A93D"/>
<path d="M248.132 32.2913C248.132 30.7136 248.429 29.2296 249.022 27.8394C249.631 26.4491 250.451 25.2385 251.482 24.2075C252.529 23.161 253.747 22.3409 255.138 21.7473C256.528 21.1381 258.012 20.8335 259.59 20.8335C261.167 20.8335 262.651 21.1381 264.041 21.7473C265.432 22.3409 266.642 23.161 267.673 24.2075C268.704 25.2385 269.516 26.4491 270.11 27.8394C270.704 29.2296 271 30.7136 271 32.2913C271 33.869 270.704 35.3529 270.11 36.7432C269.516 38.1334 268.704 39.344 267.673 40.375C266.642 41.406 265.432 42.226 264.041 42.8353C262.651 43.4288 261.167 43.7256 259.59 43.7256C258.168 43.7256 256.84 43.4991 255.606 43.0461C254.372 42.5775 253.255 41.9214 252.256 41.0779V60.8608C252.256 61.4544 252.068 61.9621 251.693 62.3839C251.334 62.8056 250.85 63.0165 250.241 63.0165C249.663 63.0165 249.163 62.8056 248.741 62.3839C248.335 61.9777 248.132 61.4701 248.132 60.8608V32.2913ZM252.279 32.2913C252.279 33.291 252.466 34.2361 252.841 35.1264C253.232 36.0012 253.755 36.7744 254.411 37.4461C255.067 38.1022 255.841 38.6255 256.731 39.016C257.621 39.3909 258.574 39.5783 259.59 39.5783C260.605 39.5783 261.558 39.3909 262.448 39.016C263.338 38.6255 264.112 38.1022 264.768 37.4461C265.424 36.7744 265.939 36.0012 266.314 35.1264C266.689 34.2361 266.877 33.291 266.877 32.2913C266.877 31.2915 266.689 30.3543 266.314 29.4795C265.939 28.5892 265.424 27.8159 264.768 27.1599C264.112 26.5038 263.338 25.9883 262.448 25.6134C261.558 25.2229 260.605 25.0276 259.59 25.0276C258.574 25.0276 257.621 25.2229 256.731 25.6134C255.841 25.9883 255.067 26.5038 254.411 27.1599C253.755 27.8159 253.232 28.5892 252.841 29.4795C252.466 30.3543 252.279 31.2915 252.279 32.2913Z" fill="#05A93D"/>
<path d="M222.639 22.8954C222.639 22.3174 222.834 21.8332 223.224 21.4427C223.631 21.0365 224.123 20.8335 224.701 20.8335C225.263 20.8335 225.747 21.0365 226.153 21.4427C226.56 21.8332 226.763 22.3174 226.763 22.8954V32.8302C226.778 33.7674 226.958 34.65 227.301 35.4779C227.661 36.2902 228.137 37.0009 228.731 37.6101C229.34 38.2193 230.051 38.7036 230.863 39.0629C231.675 39.4065 232.558 39.5783 233.511 39.5783C234.464 39.5783 235.323 39.3987 236.088 39.0394C236.869 38.6801 237.533 38.1881 238.08 37.5633C238.627 36.9384 239.048 36.2121 239.345 35.3842C239.657 34.5407 239.814 33.6425 239.814 32.6896V22.8954C239.814 22.6142 239.868 22.3487 239.978 22.0988C240.103 21.8488 240.259 21.6301 240.446 21.4427C240.634 21.2552 240.852 21.1068 241.102 20.9975C241.368 20.8881 241.641 20.8335 241.922 20.8335C242.516 20.8335 243 21.0365 243.375 21.4427C243.766 21.8332 243.961 22.3174 243.961 22.8954V32.5959V32.713C243.961 34.2282 243.695 35.6575 243.164 37.0009C242.649 38.3287 241.93 39.4924 241.009 40.4921C240.087 41.4919 238.986 42.2807 237.705 42.8587C236.424 43.4366 235.026 43.7256 233.511 43.7256C231.98 43.7256 230.551 43.4366 229.223 42.8587C227.911 42.2807 226.763 41.4919 225.778 40.4921C224.81 39.4924 224.045 38.3287 223.482 37.0009C222.92 35.6575 222.639 34.2282 222.639 32.713V22.8954Z" fill="#05A93D"/>
<path d="M248.132 32.2913C248.132 30.7136 248.429 29.2296 249.022 27.8394C249.631 26.4491 250.451 25.2385 251.482 24.2075C252.529 23.161 253.747 22.3409 255.138 21.7473C256.528 21.1381 258.012 20.8335 259.59 20.8335C261.167 20.8335 262.651 21.1381 264.041 21.7473C265.432 22.3409 266.642 23.161 267.673 24.2075C268.704 25.2385 269.516 26.4491 270.11 27.8394C270.704 29.2296 271 30.7136 271 32.2913C271 33.869 270.704 35.3529 270.11 36.7432C269.516 38.1334 268.704 39.344 267.673 40.375C266.642 41.406 265.432 42.226 264.041 42.8353C262.651 43.4288 261.167 43.7256 259.59 43.7256C258.168 43.7256 256.84 43.4991 255.606 43.0461C254.372 42.5775 253.255 41.9214 252.256 41.0779V60.8608C252.256 61.4544 252.068 61.9621 251.693 62.3839C251.334 62.8056 250.85 63.0165 250.241 63.0165C249.663 63.0165 249.163 62.8056 248.741 62.3839C248.335 61.9777 248.132 61.4701 248.132 60.8608V32.2913ZM252.279 32.2913C252.279 33.291 252.466 34.2361 252.841 35.1264C253.232 36.0012 253.755 36.7744 254.411 37.4461C255.067 38.1022 255.841 38.6255 256.731 39.016C257.621 39.3909 258.574 39.5783 259.59 39.5783C260.605 39.5783 261.558 39.3909 262.448 39.016C263.338 38.6255 264.112 38.1022 264.768 37.4461C265.424 36.7744 265.939 36.0012 266.314 35.1264C266.689 34.2361 266.877 33.291 266.877 32.2913C266.877 31.2915 266.689 30.3543 266.314 29.4795C265.939 28.5892 265.424 27.8159 264.768 27.1599C264.112 26.5038 263.338 25.9883 262.448 25.6134C261.558 25.2229 260.605 25.0276 259.59 25.0276C258.574 25.0276 257.621 25.2229 256.731 25.6134C255.841 25.9883 255.067 26.5038 254.411 27.1599C253.755 27.8159 253.232 28.5892 252.841 29.4795C252.466 30.3543 252.279 31.2915 252.279 32.2913Z" fill="#05A93D"/>
<path d="M104.779 52.6598C105.515 52.6598 106.13 52.9064 106.623 53.3997C107.116 53.893 107.363 54.5077 107.363 55.2437C107.363 55.9797 107.116 56.5944 106.623 57.0877C106.13 57.581 105.515 57.8276 104.779 57.8276H102.665V60.8813H101.843V52.6598H104.779ZM104.779 57.0525C105.288 57.0525 105.707 56.8841 106.036 56.5474C106.372 56.2029 106.541 55.7683 106.541 55.2437C106.541 54.7191 106.372 54.2884 106.036 53.9518C105.707 53.6072 105.288 53.435 104.779 53.435H102.665V57.0525H104.779ZM110.435 56.5474C110.435 56.8136 110.553 57.025 110.788 57.1816C111.022 57.3382 111.308 57.4596 111.645 57.5457C111.982 57.6319 112.318 57.7298 112.655 57.8394C112.992 57.9412 113.277 58.1173 113.512 58.3679C113.747 58.6106 113.865 58.9317 113.865 59.331C113.865 59.8321 113.665 60.2393 113.266 60.5525C112.874 60.8657 112.365 61.0223 111.739 61.0223C111.175 61.0223 110.694 60.897 110.294 60.6464C109.903 60.3959 109.629 60.0709 109.472 59.6716L110.13 59.284C110.239 59.5894 110.435 59.8321 110.717 60.0122C111.007 60.1845 111.347 60.2706 111.739 60.2706C112.123 60.2706 112.444 60.1962 112.702 60.0474C112.96 59.8908 113.09 59.652 113.09 59.331C113.09 59.0648 112.972 58.8534 112.737 58.6968C112.502 58.5402 112.216 58.4188 111.88 58.3327C111.543 58.2465 111.206 58.1526 110.87 58.0508C110.533 57.9412 110.247 57.765 110.012 57.5223C109.777 57.2717 109.66 56.9467 109.66 56.5474C109.66 56.0698 109.848 55.6704 110.224 55.3494C110.607 55.0284 111.089 54.8679 111.668 54.8679C112.146 54.8679 112.565 54.9775 112.925 55.1967C113.285 55.4081 113.552 55.6979 113.724 56.0659L113.078 56.4417C112.851 55.8936 112.381 55.6196 111.668 55.6196C111.332 55.6196 111.042 55.7018 110.799 55.8662C110.557 56.0228 110.435 56.2499 110.435 56.5474ZM120.615 55.0088H121.437L118.923 61.4216C118.696 62.001 118.371 62.4552 117.949 62.7841C117.534 63.1207 117.068 63.2695 116.551 63.2304V62.5022C117.256 62.5805 117.792 62.1733 118.16 61.2807L118.313 60.9166L115.682 55.0088H116.504L118.712 59.93L120.615 55.0088ZM126.408 61.0223C125.523 61.0223 124.787 60.7287 124.2 60.1414C123.612 59.5463 123.319 58.8142 123.319 57.9451C123.319 57.0759 123.612 56.3477 124.2 55.7605C124.787 55.1654 125.523 54.8679 126.408 54.8679C126.987 54.8679 127.508 55.0088 127.97 55.2907C128.432 55.5647 128.769 55.9367 128.98 56.4065L128.346 56.7706C128.189 56.4182 127.935 56.1403 127.582 55.9367C127.238 55.7253 126.846 55.6196 126.408 55.6196C125.758 55.6196 125.21 55.8466 124.764 56.3008C124.317 56.7471 124.094 57.2952 124.094 57.9451C124.094 58.595 124.317 59.147 124.764 59.6011C125.21 60.0474 125.758 60.2706 126.408 60.2706C126.846 60.2706 127.238 60.1688 127.582 59.9652C127.927 59.7538 128.197 59.4719 128.393 59.1196L129.039 59.4954C128.796 59.9652 128.44 60.3372 127.97 60.6112C127.5 60.8853 126.979 61.0223 126.408 61.0223ZM134.427 54.8679C135.139 54.8679 135.699 55.0871 136.106 55.5256C136.521 55.9562 136.729 56.5396 136.729 57.2756V60.8813H135.954V57.2756C135.954 56.751 135.813 56.3438 135.531 56.0541C135.257 55.7644 134.865 55.6196 134.356 55.6196C133.793 55.6196 133.335 55.7996 132.982 56.1598C132.63 56.5122 132.454 57.0603 132.454 57.8041V60.8813H131.679V52.6598H132.454V55.9249C132.892 55.2202 133.55 54.8679 134.427 54.8679ZM142.468 54.8679C143.337 54.8679 144.038 55.1772 144.57 55.7957C145.11 56.4065 145.381 57.1308 145.381 57.9686C145.381 58.0547 145.373 58.1761 145.357 58.3327H140.201C140.279 58.9277 140.53 59.4015 140.953 59.7538C141.383 60.0983 141.912 60.2706 142.538 60.2706C142.985 60.2706 143.368 60.1806 143.689 60.0005C144.018 59.8125 144.265 59.5698 144.429 59.2723L145.11 59.6716C144.852 60.0866 144.5 60.4155 144.053 60.6582C143.607 60.9009 143.098 61.0223 142.526 61.0223C141.603 61.0223 140.851 60.7326 140.271 60.1532C139.692 59.5737 139.402 58.8377 139.402 57.9451C139.402 57.0681 139.688 56.336 140.26 55.7487C140.831 55.1615 141.567 54.8679 142.468 54.8679ZM142.468 55.6196C141.857 55.6196 141.344 55.8036 140.929 56.1716C140.522 56.5318 140.279 57.0016 140.201 57.581H144.582C144.504 56.9624 144.265 56.4809 143.865 56.1363C143.466 55.7918 143 55.6196 142.468 55.6196ZM153.191 52.6598H153.966V60.8813H153.191V59.7303C152.651 60.5916 151.86 61.0223 150.818 61.0223C149.98 61.0223 149.264 60.7247 148.669 60.1297C148.082 59.5346 147.788 58.8064 147.788 57.9451C147.788 57.0838 148.082 56.3556 148.669 55.7605C149.264 55.1654 149.98 54.8679 150.818 54.8679C151.86 54.8679 152.651 55.2985 153.191 56.1598V52.6598ZM149.233 59.6011C149.679 60.0474 150.227 60.2706 150.877 60.2706C151.527 60.2706 152.075 60.0474 152.521 59.6011C152.968 59.147 153.191 58.595 153.191 57.9451C153.191 57.2952 152.968 56.7471 152.521 56.3008C152.075 55.8466 151.527 55.6196 150.877 55.6196C150.227 55.6196 149.679 55.8466 149.233 56.3008C148.786 56.7471 148.563 57.2952 148.563 57.9451C148.563 58.595 148.786 59.147 149.233 59.6011ZM159.847 54.8679C160.716 54.8679 161.417 55.1772 161.95 55.7957C162.49 56.4065 162.76 57.1308 162.76 57.9686C162.76 58.0547 162.752 58.1761 162.737 58.3327H157.58C157.659 58.9277 157.909 59.4015 158.332 59.7538C158.763 60.0983 159.291 60.2706 159.918 60.2706C160.364 60.2706 160.748 60.1806 161.069 60.0005C161.398 59.8125 161.644 59.5698 161.809 59.2723L162.49 59.6716C162.232 60.0866 161.879 60.4155 161.433 60.6582C160.987 60.9009 160.478 61.0223 159.906 61.0223C158.982 61.0223 158.23 60.7326 157.651 60.1532C157.071 59.5737 156.782 58.8377 156.782 57.9451C156.782 57.0681 157.068 56.336 157.639 55.7487C158.211 55.1615 158.947 54.8679 159.847 54.8679ZM159.847 55.6196C159.237 55.6196 158.724 55.8036 158.309 56.1716C157.901 56.5318 157.659 57.0016 157.58 57.581H161.961C161.883 56.9624 161.644 56.4809 161.245 56.1363C160.846 55.7918 160.38 55.6196 159.847 55.6196ZM165.52 60.8813V52.3074H166.295V60.8813H165.52ZM170.254 53.5994C170.144 53.709 170.011 53.7638 169.855 53.7638C169.698 53.7638 169.565 53.709 169.455 53.5994C169.346 53.4898 169.291 53.3567 169.291 53.2001C169.291 53.0435 169.346 52.9104 169.455 52.8007C169.565 52.6911 169.698 52.6363 169.855 52.6363C170.011 52.6363 170.144 52.6911 170.254 52.8007C170.363 52.9104 170.418 53.0435 170.418 53.2001C170.418 53.3567 170.363 53.4898 170.254 53.5994ZM169.467 60.8813V55.0088H170.242V60.8813H169.467ZM176.151 61.0223C175.266 61.0223 174.53 60.7287 173.942 60.1414C173.355 59.5463 173.062 58.8142 173.062 57.9451C173.062 57.0759 173.355 56.3477 173.942 55.7605C174.53 55.1654 175.266 54.8679 176.151 54.8679C176.73 54.8679 177.251 55.0088 177.713 55.2907C178.175 55.5647 178.511 55.9367 178.723 56.4065L178.088 56.7706C177.932 56.4182 177.677 56.1403 177.325 55.9367C176.981 55.7253 176.589 55.6196 176.151 55.6196C175.501 55.6196 174.953 55.8466 174.506 56.3008C174.06 56.7471 173.837 57.2952 173.837 57.9451C173.837 58.595 174.06 59.147 174.506 59.6011C174.953 60.0474 175.501 60.2706 176.151 60.2706C176.589 60.2706 176.981 60.1688 177.325 59.9652C177.67 59.7538 177.94 59.4719 178.135 59.1196L178.781 59.4954C178.539 59.9652 178.182 60.3372 177.713 60.6112C177.243 60.8853 176.722 61.0223 176.151 61.0223ZM186.002 52.6598H186.824V60.8813H186.002V52.6598ZM192.866 54.8679C193.579 54.8679 194.139 55.0871 194.546 55.5256C194.961 55.9562 195.168 56.5396 195.168 57.2756V60.8813H194.393V57.2756C194.393 56.751 194.252 56.3438 193.97 56.0541C193.696 55.7644 193.305 55.6196 192.796 55.6196C192.232 55.6196 191.774 55.7996 191.422 56.1598C191.069 56.5122 190.893 57.0603 190.893 57.8041V60.8813H190.118V55.0088H190.893V55.9249C191.332 55.2202 191.989 54.8679 192.866 54.8679ZM198.805 56.5474C198.805 56.8136 198.922 57.025 199.157 57.1816C199.392 57.3382 199.678 57.4596 200.015 57.5457C200.351 57.6319 200.688 57.7298 201.025 57.8394C201.361 57.9412 201.647 58.1173 201.882 58.3679C202.117 58.6106 202.235 58.9317 202.235 59.331C202.235 59.8321 202.035 60.2393 201.636 60.5525C201.244 60.8657 200.735 61.0223 200.109 61.0223C199.545 61.0223 199.063 60.897 198.664 60.6464C198.272 60.3959 197.998 60.0709 197.842 59.6716L198.5 59.284C198.609 59.5894 198.805 59.8321 199.087 60.0122C199.377 60.1845 199.717 60.2706 200.109 60.2706C200.492 60.2706 200.813 60.1962 201.072 60.0474C201.33 59.8908 201.459 59.652 201.459 59.331C201.459 59.0648 201.342 58.8534 201.107 58.6968C200.872 58.5402 200.586 58.4188 200.25 58.3327C199.913 58.2465 199.576 58.1526 199.24 58.0508C198.903 57.9412 198.617 57.765 198.382 57.5223C198.147 57.2717 198.03 56.9467 198.03 56.5474C198.03 56.0698 198.218 55.6704 198.594 55.3494C198.977 55.0284 199.459 54.8679 200.038 54.8679C200.516 54.8679 200.935 54.9775 201.295 55.1967C201.655 55.4081 201.921 55.6979 202.094 56.0659L201.448 56.4417C201.221 55.8936 200.751 55.6196 200.038 55.6196C199.701 55.6196 199.412 55.7018 199.169 55.8662C198.926 56.0228 198.805 56.2499 198.805 56.5474ZM207.938 55.7605H206.246V59.3193C206.246 59.6403 206.309 59.8713 206.434 60.0122C206.559 60.1453 206.747 60.2158 206.998 60.2236C207.249 60.2236 207.562 60.2158 207.938 60.2001V60.8813C207.115 61.0066 206.497 60.9479 206.082 60.7052C205.675 60.4624 205.471 60.0005 205.471 59.3193V55.7605H204.238V55.0088H205.471V53.5994L206.246 53.3645V55.0088H207.938V55.7605ZM211.543 53.5994C211.434 53.709 211.301 53.7638 211.144 53.7638C210.987 53.7638 210.854 53.709 210.745 53.5994C210.635 53.4898 210.58 53.3567 210.58 53.2001C210.58 53.0435 210.635 52.9104 210.745 52.8007C210.854 52.6911 210.987 52.6363 211.144 52.6363C211.301 52.6363 211.434 52.6911 211.543 52.8007C211.653 52.9104 211.708 53.0435 211.708 53.2001C211.708 53.3567 211.653 53.4898 211.543 53.5994ZM210.756 60.8813V55.0088H211.532V60.8813H210.756ZM217.816 55.7605H216.125V59.3193C216.125 59.6403 216.187 59.8713 216.312 60.0122C216.438 60.1453 216.626 60.2158 216.876 60.2236C217.127 60.2236 217.44 60.2158 217.816 60.2001V60.8813C216.994 61.0066 216.375 60.9479 215.96 60.7052C215.553 60.4624 215.349 60.0005 215.349 59.3193V55.7605H214.116V55.0088H215.349V53.5994L216.125 53.3645V55.0088H217.816V55.7605ZM224.769 55.0088H225.544V60.8813H224.769V59.9652C224.33 60.6699 223.673 61.0223 222.796 61.0223C222.083 61.0223 221.519 60.807 221.104 60.3763C220.697 59.9378 220.494 59.3506 220.494 58.6145V55.0088H221.269V58.6145C221.269 59.1392 221.406 59.5463 221.68 59.836C221.962 60.1257 222.357 60.2706 222.866 60.2706C223.43 60.2706 223.888 60.0944 224.24 59.7421C224.593 59.3819 224.769 58.8299 224.769 58.086V55.0088ZM231.823 55.7605H230.132V59.3193C230.132 59.6403 230.195 59.8713 230.32 60.0122C230.445 60.1453 230.633 60.2158 230.884 60.2236C231.134 60.2236 231.447 60.2158 231.823 60.2001V60.8813C231.001 61.0066 230.382 60.9479 229.967 60.7052C229.56 60.4624 229.357 60.0005 229.357 59.3193V55.7605H228.123V55.0088H229.357V53.5994L230.132 53.3645V55.0088H231.823V55.7605ZM237 54.8679C237.869 54.8679 238.569 55.1772 239.102 55.7957C239.642 56.4065 239.912 57.1308 239.912 57.9686C239.912 58.0547 239.905 58.1761 239.889 58.3327H234.733C234.811 58.9277 235.062 59.4015 235.484 59.7538C235.915 60.0983 236.444 60.2706 237.07 60.2706C237.516 60.2706 237.9 60.1806 238.221 60.0005C238.55 59.8125 238.797 59.5698 238.961 59.2723L239.642 59.6716C239.384 60.0866 239.031 60.4155 238.585 60.6582C238.139 60.9009 237.63 61.0223 237.058 61.0223C236.134 61.0223 235.383 60.7326 234.803 60.1532C234.224 59.5737 233.934 58.8377 233.934 57.9451C233.934 57.0681 234.22 56.336 234.791 55.7487C235.363 55.1615 236.099 54.8679 237 54.8679ZM237 55.6196C236.389 55.6196 235.876 55.8036 235.461 56.1716C235.054 56.5318 234.811 57.0016 234.733 57.581H239.114C239.035 56.9624 238.797 56.4809 238.397 56.1363C237.998 55.7918 237.532 55.6196 237 55.6196Z" fill="black"/>
<path d="M222.639 22.8952C222.639 22.3172 222.834 21.833 223.224 21.4425C223.631 21.0363 224.123 20.8333 224.701 20.8333C225.263 20.8333 225.747 21.0363 226.153 21.4425C226.559 21.833 226.763 22.3172 226.763 22.8952V32.83C226.778 33.7672 226.958 34.6498 227.301 35.4777C227.661 36.29 228.137 37.0007 228.731 37.6099C229.34 38.2191 230.051 38.7034 230.863 39.0626C231.675 39.4063 232.558 39.5781 233.511 39.5781C234.464 39.5781 235.323 39.3985 236.088 39.0392C236.869 38.6799 237.533 38.1879 238.08 37.563C238.626 36.9382 239.048 36.2118 239.345 35.384C239.657 34.5404 239.814 33.6422 239.814 32.6894V22.8952C239.814 22.614 239.868 22.3485 239.978 22.0985C240.103 21.8486 240.259 21.6299 240.446 21.4425C240.634 21.255 240.852 21.1066 241.102 20.9973C241.368 20.8879 241.641 20.8333 241.922 20.8333C242.516 20.8333 243 21.0363 243.375 21.4425C243.766 21.833 243.961 22.3172 243.961 22.8952V32.5957V32.7128C243.961 34.228 243.695 35.6573 243.164 37.0007C242.649 38.3285 241.93 39.4922 241.009 40.4919C240.087 41.4916 238.986 42.2805 237.705 42.8585C236.424 43.4364 235.026 43.7254 233.511 43.7254C231.98 43.7254 230.551 43.4364 229.223 42.8585C227.911 42.2805 226.763 41.4916 225.778 40.4919C224.81 39.4922 224.045 38.3285 223.482 37.0007C222.92 35.6573 222.639 34.228 222.639 32.7128V22.8952Z" fill="#F67C01"/>
<path d="M248.132 32.291C248.132 30.7134 248.428 29.2294 249.022 27.8391C249.631 26.4489 250.451 25.2383 251.482 24.2073C252.529 23.1607 253.747 22.3407 255.138 21.7471C256.528 21.1379 258.012 20.8333 259.59 20.8333C261.167 20.8333 262.651 21.1379 264.041 21.7471C265.432 22.3407 266.642 23.1607 267.673 24.2073C268.704 25.2383 269.516 26.4489 270.11 27.8391C270.704 29.2294 271 30.7134 271 32.291C271 33.8687 270.704 35.3527 270.11 36.7429C269.516 38.1332 268.704 39.3438 267.673 40.3748C266.642 41.4057 265.432 42.2258 264.041 42.835C262.651 43.4286 261.167 43.7254 259.59 43.7254C258.168 43.7254 256.84 43.4989 255.606 43.0459C254.372 42.5773 253.255 41.9212 252.256 41.0777V60.8606C252.256 61.4542 252.068 61.9619 251.693 62.3836C251.334 62.8054 250.85 63.0163 250.24 63.0163C249.663 63.0163 249.163 62.8054 248.741 62.3836C248.335 61.9775 248.132 61.4698 248.132 60.8606V32.291ZM252.279 32.291C252.279 33.2908 252.466 34.2358 252.841 35.1262C253.232 36.001 253.755 36.7742 254.411 37.4459C255.067 38.102 255.841 38.6252 256.731 39.0158C257.621 39.3907 258.574 39.5781 259.59 39.5781C260.605 39.5781 261.558 39.3907 262.448 39.0158C263.338 38.6252 264.112 38.102 264.768 37.4459C265.424 36.7742 265.939 36.001 266.314 35.1262C266.689 34.2358 266.877 33.2908 266.877 32.291C266.877 31.2913 266.689 30.3541 266.314 29.4793C265.939 28.5889 265.424 27.8157 264.768 27.1596C264.112 26.5036 263.338 25.9881 262.448 25.6132C261.558 25.2227 260.605 25.0274 259.59 25.0274C258.574 25.0274 257.621 25.2227 256.731 25.6132C255.841 25.9881 255.067 26.5036 254.411 27.1596C253.755 27.8157 253.232 28.5889 252.841 29.4793C252.466 30.3541 252.279 31.2913 252.279 32.291Z" fill="#F67C01"/>
<mask id="mask0_4245_172" style="mask-type:luminance" maskUnits="userSpaceOnUse" x="1" y="0" width="53" height="60">
<path d="M53.1822 0H1.50391V59.1952H53.1822V0Z" fill="white"/>
</mask>
<g mask="url(#mask0_4245_172)">
<path d="M25.431 50.0907C25.3981 48.6249 25.1867 41.8503 24.9847 40.4033C24.8672 39.5718 24.4961 38.8389 24.0169 38.153C22.988 36.6778 20.2491 34.7281 20.1222 34.6388C17.1531 32.6422 13.3054 32.271 13.3054 32.271C12.8497 32.2851 12.3987 32.2851 11.9524 32.3744C10.4349 32.6751 9.63152 33.5583 9.40132 35.1791C8.7248 34.4039 9.22749 32.9569 10.651 31.5616C8.9644 31.0354 7.0523 31.4442 5.67578 32.6751C5.80733 32.2757 5.99525 32.0173 6.22075 31.7871C6.95365 31.0213 7.90265 30.7019 8.92212 30.5375C9.50937 30.4435 10.0966 30.4529 10.7919 30.4623C9.76777 29.3113 9.18521 28.0522 9.04897 26.5582C9.32615 26.9716 9.58924 27.3475 9.84293 27.7327C11.1349 29.7153 12.9061 30.9462 15.2927 31.2797C16.6034 31.463 17.8813 31.8247 19.1215 32.3039C19.1732 32.3227 19.2202 32.365 19.2907 32.318C18.8115 31.5005 18.5484 30.575 17.9752 29.8046C17.4584 29.1092 16.8336 28.5596 16.0866 28.1274C15.5323 27.8079 14.9497 27.5448 14.4188 27.1831C13.7611 26.732 13.3289 26.126 13.094 25.2522C13.8691 26.328 14.9873 26.6804 16.049 27.122C16.4155 27.2723 16.7772 27.4321 17.1531 27.5918C16.937 26.281 16.8383 24.975 17.2047 23.6736C17.3833 25.83 18.0081 27.822 19.3283 29.6213C19.5866 28.7146 20.1081 27.977 20.4511 27.1549C20.686 26.5958 20.8128 26.0273 20.639 25.3273C21.0759 25.8629 21.1652 26.3891 21.043 26.9482C20.9021 27.5918 20.7283 28.2307 20.5591 28.8696C20.4088 29.4381 20.3806 30.016 20.3806 30.5985C20.3806 30.9227 20.4887 31.214 20.6484 31.4911C21.7994 33.469 23.4813 34.808 25.6283 35.5831C25.774 35.6348 25.8867 35.6818 25.9008 35.4469C26.0746 31.8153 25.727 28.2636 24.2894 24.8763C24.0592 24.3314 23.7444 23.8287 23.378 23.3589C22.2457 21.8978 20.7706 21.4796 19.0464 22.1468C18.8726 22.2125 18.7034 22.2877 18.5296 22.3535C18.5202 22.3394 18.5061 22.33 18.492 22.3159C19.1544 21.4796 20.0471 21.0803 21.0853 20.9441C21.1417 20.9394 21.2028 20.9394 21.3061 20.9347C21.1229 20.681 20.8786 20.5635 20.639 20.4461C19.8779 20.0702 19.0558 19.8447 18.2712 19.5394C17.7074 19.3186 17.1531 19.0837 16.6692 18.7172C16.3685 18.4917 16.1007 18.2427 15.9739 17.8763C15.988 17.8575 16.0021 17.8387 16.0161 17.8199C16.8571 18.3414 17.8061 18.5716 18.7457 18.8394C19.643 19.093 20.5263 19.3561 21.3296 19.8494C21.3531 19.8588 21.3954 19.8776 21.4001 19.8729C21.4236 19.84 21.4048 19.8212 21.3672 19.8165C21.2263 18.9427 21.1135 18.0736 21.2216 17.1856C21.2451 16.9789 21.2826 16.7769 21.3343 16.5702C21.4518 18.7172 22.6122 20.3098 24.0592 21.7521C24.5384 22.2266 25.0176 22.6964 25.4921 23.1756C26.0417 23.73 26.5585 24.3079 26.9015 25.0455C26.9344 24.6649 26.9626 24.2797 27.0001 23.8991C27.0894 22.9031 27.1881 21.9119 27.2632 20.9159C27.3948 19.2058 26.8686 17.693 25.8679 16.3212C25.0599 15.2125 24.1437 14.2259 22.8236 13.6762C23.1384 13.5917 23.6411 13.648 24.0545 13.8406C25.4357 14.489 26.6431 15.344 27.4183 16.7064C27.4277 16.7205 27.4512 16.7252 27.5404 16.7675C27.5921 13.8078 27.2632 10.9608 26.0464 8.25469C26.1639 8.2171 26.2391 8.36744 26.3236 8.4614C27.0659 9.24128 27.4559 10.2185 27.7894 11.2144C28.0102 11.8675 28.1934 12.5393 28.4142 13.2769C29.382 11.8816 30.2277 10.444 31.7686 9.6688C31.8203 9.64531 31.8955 9.6641 32.0552 9.6641C29.6827 11.8346 28.6163 14.4514 28.931 17.6601C29.3069 17.0823 29.7109 16.5984 30.1666 16.1615C31.017 15.344 31.9331 14.6205 33.0418 14.1695C33.5727 13.9534 34.1224 13.8125 34.7707 13.9816C34.4606 14.099 34.2069 14.1883 33.9626 14.2917C32.4733 14.9306 31.374 15.997 30.5613 17.3736C29.4478 19.2575 28.9404 21.3011 28.9498 23.5609C29.9411 22.6776 31.1062 22.3112 32.2948 21.9964C32.9244 21.8273 33.5539 21.6723 34.1787 21.4843C35.2452 21.1649 36.1754 20.6152 36.9412 19.7978C37.8009 18.8816 38.1204 17.8058 37.8714 16.5655C37.8573 16.4997 37.8479 16.434 37.8291 16.3541C38.5761 16.9367 38.6231 18.8018 37.9466 20.089C38.4868 20.3286 41.8224 19.1118 43.6735 17.9937C43.4667 18.4165 43.1473 18.6937 42.7996 18.9427C41.6251 19.7837 40.3003 20.3098 38.9566 20.8125C38.0217 21.1602 37.068 21.4562 36.0439 21.7427C37.0633 21.9964 38.0546 22.1656 38.858 22.983C38.3271 22.8891 37.8902 22.7622 37.4345 22.7246C35.0009 22.5461 32.7411 23.0488 30.7022 24.4112C29.6216 25.1347 28.9921 26.1589 28.7572 27.4274C28.3861 29.4193 28.3391 31.416 28.6773 33.4173C28.6867 33.4831 28.7102 33.5489 28.7243 33.61C28.7619 33.6147 28.7901 33.6241 28.7995 33.6147C29.8753 32.5106 31.2049 31.7589 32.5156 30.9885C33.3049 30.5234 34.1271 30.1005 34.7942 29.4569C35.9217 28.367 36.0673 27.0421 35.2217 25.5857C35.5459 25.628 35.7714 25.8018 35.964 26.0085C36.5231 26.6099 36.8989 27.3099 36.9647 28.1415C36.9882 28.4515 37.162 28.5408 37.4204 28.5408C37.8432 28.5361 38.2049 28.3388 38.5479 28.118C39.8868 27.2535 40.662 26.3562 41.5218 24.7025C41.9587 25.9569 41.0942 27.5824 39.0694 29.2408C40.4506 29.1327 41.7379 29.2784 42.9781 29.7482C44.2043 30.2133 45.2802 30.8898 46.0554 31.9797C44.256 30.9274 42.3063 30.575 40.2627 30.6549C38.0593 30.7395 35.9546 31.2375 34.0519 32.3932C31.6418 33.859 30.2277 36.0388 29.8143 38.7966C29.3257 42.0617 29.119 46.7645 29.4572 50.0672C28.7196 50.5605 26.8404 51.5001 25.431 50.0907Z" fill="#05A93D"/>
<path d="M37.4958 5.07876C36.1099 5.7036 35.4616 6.99555 34.6582 8.25463C34.4844 7.611 34.4891 7.04253 34.5784 6.49286C35.0529 3.5472 37.5193 2.26464 39.9858 2.30692C40.1314 2.31162 40.2395 2.31632 40.1925 2.51833C39.8354 4.06868 39.4455 5.60963 38.4965 6.92978C37.8811 7.78482 37.0824 8.39087 36.0488 8.66805C35.6683 8.77141 35.6354 8.73852 35.7059 8.35798C35.922 7.17878 36.5374 6.20628 37.2891 5.30426C37.3549 5.22909 37.4254 5.15393 37.4958 5.07876Z" fill="#F67C01"/>
<path d="M49.5365 21.4043C48.1788 21.4888 47.1828 22.3486 46.0693 23.0956C46.2291 22.2311 46.5861 21.5264 47.1452 20.9392C48.4841 19.5344 50.1143 19.2385 51.9372 19.7553C52.1909 19.8304 52.4493 19.8962 52.6936 20.023C52.8486 20.1029 52.858 20.1734 52.7593 20.3143C52.0217 21.315 51.2654 22.3063 50.26 23.0533C49.3814 23.7016 48.3996 24.0962 47.272 23.9929C47.1217 23.9788 46.9385 24.007 46.8586 23.8613C46.7693 23.6922 46.9244 23.5513 47.0183 23.4291C47.662 22.5741 48.517 21.9915 49.4707 21.5358C49.5036 21.5217 49.5318 21.5029 49.56 21.4841C49.5506 21.4606 49.5412 21.4325 49.5365 21.4043Z" fill="#F67C01"/>
<path d="M25.1631 5.94781C24.6933 4.98941 24.2846 3.98403 23.4577 3.24174C23.3544 3.14778 23.2369 3.07262 23.0302 3.00684C23.4624 3.54242 23.7349 4.09679 23.9745 4.66995C24.1624 5.12096 24.294 5.58606 24.3034 6.08405C24.3081 6.35654 24.2 6.37063 23.9886 6.28137C23.1711 5.93841 22.5275 5.39814 22.0718 4.63236C21.3248 3.38269 21.1369 1.98267 20.9443 0.582659C20.9067 0.324267 21.1557 0.418228 21.2402 0.427624C22.1329 0.512189 22.9362 0.808164 23.6832 1.33434C25.0832 2.31623 25.7597 4.12967 25.2852 5.77398C25.2712 5.83506 25.2618 5.90553 25.1631 5.94781Z" fill="#F67C01"/>
<path d="M12.2059 21.409C12.6851 21.8271 13.2019 22.1936 13.6106 22.6869C13.9019 23.0345 14.1743 23.3916 14.367 23.805C14.5032 24.0916 14.4046 24.1433 14.1368 24.1339C12.8965 24.0869 11.9146 23.5231 11.1065 22.6305C10.3924 21.8412 9.87565 20.9204 9.37766 19.9902C9.24142 19.7318 9.32128 19.6473 9.56558 19.5956C10.8434 19.3184 12.0884 19.3513 13.2394 20.0419C14.4093 20.7419 15.1703 22.0761 15.1985 23.4386C14.2824 22.6023 13.479 21.6486 12.2059 21.409Z" fill="#F67C01"/>
<path d="M5.56323 20.9297C5.29544 22.1746 5.82162 23.2787 6.25384 24.4767C5.68068 24.2324 5.26725 23.9176 4.9149 23.5136C3.65583 22.0572 3.4961 20.1263 4.49208 18.482C4.63772 18.2471 4.80685 18.0263 4.95718 17.7914C5.05584 17.6363 5.1451 17.6176 5.27195 17.7726C6.29142 19.0129 7.28271 20.2672 7.51761 21.935C7.61157 22.5975 7.48942 23.2223 7.24043 23.8377C7.15116 24.0539 7.0525 24.0257 6.91626 23.8847C6.38538 23.3398 6.06592 22.6773 5.83571 21.9632C5.73236 21.6156 5.65249 21.2726 5.56323 20.9297Z" fill="#F67C01"/>
<path d="M5.53031 32.2004C4.78332 32.9239 4.03164 33.6474 3.57593 34.6011C3.55244 34.6481 3.57123 34.7139 3.57123 34.7937C3.77794 34.7608 3.86251 34.6011 3.97056 34.4743C4.48265 33.8823 5.05581 33.3608 5.76991 33.0132C5.89206 32.9521 6.0377 32.844 6.15984 32.9239C6.28669 33.0085 6.21622 33.1823 6.20682 33.3139C6.09877 34.6904 5.34708 35.6817 4.29003 36.485C3.58532 37.0206 2.79605 37.4199 2.01148 37.824C1.80007 37.932 1.70141 37.8944 1.64973 37.6548C1.33497 36.0481 1.49 34.5541 2.70679 33.3232C3.4021 32.6232 4.26184 32.2427 5.24373 32.1346C5.3236 32.1253 5.42225 32.0924 5.53031 32.2004Z" fill="#F67C01"/>
<path d="M13.7987 14.8927C13.2913 14.5685 12.8309 14.1786 12.2953 13.8967C11.7738 13.6242 11.2618 13.3329 10.5523 13.3658C11.2007 13.6853 11.7456 14.0047 12.2295 14.4182C12.5819 14.7235 12.9108 15.043 13.1457 15.4564C13.2537 15.6444 13.2114 15.7148 13 15.7477C12.0604 15.8933 11.1913 15.6725 10.402 15.1792C9.21811 14.4464 8.40065 13.3611 7.60668 12.2524C7.53621 12.1537 7.53151 12.0832 7.64896 12.0363C8.90334 11.5195 10.1859 11.3269 11.4732 11.8859C12.7604 12.4403 13.5638 13.4269 13.8551 14.8081C13.8598 14.8175 13.8551 14.8316 13.8504 14.841C13.8269 14.8598 13.8128 14.8786 13.7987 14.8927Z" fill="#F67C01"/>
<path d="M46.7928 29.8373C47.9156 29.6822 49.062 29.64 50.0955 28.9212C49.8653 28.8648 49.7385 28.9681 49.6022 28.9775C49.466 28.9869 49.3298 29.0339 49.1935 29.0574C48.4653 29.1937 47.7418 29.2124 47.0183 29.0339C46.727 28.9634 46.6895 28.8789 46.9009 28.6346C47.6056 27.8312 48.5029 27.4413 49.5459 27.3238C50.7063 27.1923 51.8338 27.4084 52.966 27.6198C53.1305 27.6527 53.2526 27.695 53.1493 27.9158C52.4774 29.3158 51.5002 30.3635 49.9076 30.65C48.9022 30.8333 47.9438 30.6453 47.0653 30.1051C46.9619 30.044 46.8539 29.9923 46.7928 29.8373Z" fill="#F67C01"/>
<path d="M44.6884 17.7257C45.1065 17.2136 45.4964 16.7908 45.83 16.321C46.1636 15.8512 46.4736 15.3532 46.5441 14.6673C46.2293 15.076 45.9709 15.4378 45.6844 15.776C45.2897 16.2458 44.8669 16.6922 44.2937 16.9552C44.1011 17.0445 44.04 17.0069 44.0306 16.7861C43.9743 15.8042 44.3031 14.9539 44.8998 14.2069C45.6891 13.2156 46.7555 12.5673 47.8267 11.933C47.9535 11.8579 48.024 11.8626 48.0757 12.0223C48.6535 13.817 48.3904 15.8418 46.5911 17.068C46.0367 17.4344 45.4307 17.6365 44.6884 17.7257Z" fill="#F67C01"/>
<path d="M47.6344 35.2447C47.7988 34.8266 47.7095 34.4978 47.625 34.1783C47.4699 33.5816 47.282 32.9991 46.9954 32.4494C46.9531 32.3649 46.8451 32.2521 46.9578 32.1722C47.0377 32.1159 47.127 32.2145 47.2068 32.2568C49.025 33.2481 49.7109 35.2917 48.8699 37.1803C48.7149 37.5327 48.5364 37.8663 48.3203 38.1857C48.2263 38.3267 48.1511 38.3548 48.029 38.2186C47.1411 37.232 46.2719 36.2266 45.9008 34.9159C45.6988 34.2112 45.7035 33.5018 45.9525 32.7971C46.0464 32.534 46.1545 32.5293 46.333 32.7172C46.8827 33.2951 47.2115 33.9904 47.4652 34.7327C47.5169 34.8736 47.5592 35.0145 47.6344 35.2447Z" fill="#F67C01"/>
<path d="M29.8569 5.57671C30.2657 4.66059 30.8576 3.81025 30.7402 2.74849C30.5053 3.31696 30.2563 3.87602 29.9039 4.38811C29.7254 4.6465 29.5046 4.872 29.2791 5.08342C29.1334 5.21966 29.0536 5.20087 28.9972 5.00355C28.7059 4.01226 28.9267 3.10085 29.4341 2.23641C29.918 1.40955 30.5851 0.733038 31.2851 0.0847102C31.4214 -0.0374386 31.4919 -0.0233445 31.5764 0.117596C32.7274 2.05788 32.361 4.37401 30.2939 5.47805C30.1717 5.54382 30.0496 5.61899 29.8569 5.57671Z" fill="#F67C01"/>
<path d="M18.6753 8.17932C17.8249 7.63904 16.9887 7.08468 15.941 7.06119C16.5424 7.38535 17.1531 7.68133 17.6511 8.16052C17.7592 8.26388 17.8766 8.36254 17.9659 8.48469C18.0598 8.60684 18.2478 8.73368 18.1679 8.88402C18.0974 9.01557 17.8813 9.01087 17.7216 9.02026C16.6927 9.10013 15.8095 8.72899 15.0249 8.09945C14.4048 7.60616 13.8786 7.0189 13.3853 6.40346C13.2725 6.26252 13.1927 6.13098 13.4323 6.02762C14.5739 5.54372 15.7249 5.33701 16.8994 5.90547C17.7733 6.32829 18.3652 7.0189 18.6941 7.93502C18.7035 7.99609 18.7457 8.06187 18.6753 8.17932Z" fill="#F67C01"/>
<path d="M9.02081 35.2212C9.08658 36.1232 9.13826 37.0158 9.67384 37.8051C9.64565 37.5796 9.62686 37.3494 9.59397 37.1239C9.5188 36.5883 9.54229 36.0621 9.66444 35.536C9.69263 35.4185 9.69733 35.2541 9.83827 35.2212C9.96042 35.1883 10.0309 35.3293 10.1061 35.4091C10.8859 36.2078 11.0222 37.1991 10.9517 38.2467C10.9094 38.8716 10.7497 39.4776 10.604 40.0837C10.5524 40.2857 10.496 40.5018 10.1953 40.3092C9.19464 39.6749 8.42886 38.8669 8.26912 37.6407C8.15167 36.7387 8.40537 35.9259 9.02081 35.2212Z" fill="#F67C01"/>
<path d="M41.2539 10.7352C40.4412 10.9419 39.8962 11.5245 39.2714 12.1117C39.1774 11.5902 39.3512 11.1862 39.5485 10.8151C40.3707 9.25061 41.9351 8.86537 43.4432 9.22242C43.5654 9.25061 43.6546 9.2788 43.6217 9.44793C43.4056 10.6177 41.6908 12.3513 40.4881 12.6003C40.272 12.6426 39.9855 12.7365 39.8633 12.5721C39.7412 12.4124 39.9526 12.1916 40.0606 12.0177C40.2908 11.6419 40.5915 11.3177 40.9345 11.0359C41.0378 10.9419 41.1412 10.8385 41.2539 10.7352Z" fill="#F67C01"/>
<path d="M19.4834 16.1001C19.3237 15.6303 19.2016 15.1464 18.9573 14.7142C18.8586 14.5357 18.8116 14.2162 18.5626 14.2773C18.4499 14.3055 18.6049 14.6249 18.666 14.8035C18.8163 15.2263 18.8915 15.6491 18.868 16.1001C18.8539 16.3256 18.7834 16.3632 18.5955 16.2505C18.0458 15.9263 17.6512 15.4612 17.421 14.8739C17.0733 13.9813 17.0217 13.0464 17.0405 12.1021C17.0452 11.9471 17.0968 11.8578 17.2801 11.9095C18.4734 12.243 19.3801 12.9008 19.7418 14.1364C19.911 14.7283 19.8687 15.3297 19.6573 15.9169C19.6244 15.9827 19.6056 16.0719 19.4834 16.1001Z" fill="#F67C01"/>
<path d="M4.57206 28.1318C4.95729 28.9164 5.69489 29.3251 6.45127 29.8184C5.50227 30.0016 4.7177 29.8043 4.02708 29.2547C3.23782 28.6204 2.93714 27.7513 2.86197 26.7788C2.84318 26.5204 2.89016 26.3936 3.20493 26.4687C4.19621 26.6989 5.15931 26.9855 5.94858 27.6761C6.30563 27.9909 6.54523 28.3808 6.70966 28.8224C6.74724 28.9258 6.82241 29.0573 6.74724 29.156C6.65798 29.2734 6.52644 29.1701 6.42308 29.1466C5.71838 28.9681 5.12642 28.5875 4.57206 28.1318Z" fill="#F67C01"/>
<path d="M23.2696 10.5426C23.1897 11.4305 23.6877 12.0788 24.0119 12.7976C23.1192 12.6003 22.2595 11.6466 22.1326 10.7164C22.034 9.96002 22.1702 9.24122 22.5414 8.5694C22.6447 8.37678 22.7293 8.37678 22.8749 8.51772C23.4481 9.08149 24.0259 9.63116 24.4112 10.3453C24.7166 10.9137 24.8387 11.5151 24.7213 12.154C24.7025 12.2527 24.7025 12.3795 24.585 12.4124C24.4817 12.4406 24.43 12.3325 24.3595 12.2715C23.8333 11.8157 23.5514 11.2144 23.2696 10.5426Z" fill="#F67C01"/>
<path d="M31.0548 28.423C30.6273 28.6814 30.491 29.1512 30.2373 29.5411C29.9273 29.1747 30.1246 28.0566 30.5474 27.5586C31.0031 27.0183 31.5951 26.774 32.2669 26.6659C32.4031 26.6425 32.5394 26.6425 32.5065 26.8445C32.3514 27.7935 32.2293 28.7613 31.4259 29.4425C31.2239 29.6163 30.9655 29.8747 30.74 29.7291C30.5521 29.6069 30.7259 29.2874 30.8105 29.0619C30.8904 28.8458 30.9749 28.6344 31.0548 28.423ZM31.1065 28.268L31.0924 28.2868L31.1112 28.2915L31.1065 28.268Z" fill="#F67C01"/>
<path d="M23.5896 30.542C23.7117 30.8474 23.8245 31.1058 23.9279 31.3736C23.9936 31.5427 24.0876 31.7729 23.9373 31.8857C23.801 31.9937 23.6131 31.8246 23.4674 31.74C23.0916 31.5239 22.8238 31.1951 22.65 30.8145C22.3916 30.2555 22.246 29.6588 22.1802 29.0434C22.1614 28.8461 22.2178 28.785 22.401 28.8085C23.7493 28.9776 24.75 29.9125 24.5621 31.4629C24.5527 31.5333 24.5527 31.6179 24.4728 31.632C24.3836 31.6508 24.3648 31.5568 24.3319 31.5004C24.1815 31.2515 24.0406 31.0025 23.8903 30.7535C23.8386 30.6595 23.7822 30.5561 23.5896 30.542ZM23.5144 30.434L23.4956 30.4246V30.4434L23.5144 30.434Z" fill="#F67C01"/>
<path d="M42.198 21.7189C41.5731 21.6015 41.0376 21.888 40.4033 22.0619C40.6147 21.5263 40.9577 21.188 41.4087 20.9766C42.3295 20.5444 43.1846 20.7229 43.9973 21.2867C44.1195 21.3712 44.1523 21.4558 44.0255 21.5592C43.396 22.076 42.7711 22.5927 41.9443 22.7713C41.606 22.8417 41.2772 22.8323 40.9483 22.7525C40.8449 22.729 40.7275 22.7008 40.6993 22.588C40.6711 22.4706 40.7839 22.4095 40.859 22.3437C41.1127 22.137 41.4087 22.0008 41.7141 21.8927C41.8785 21.8317 42.0382 21.7753 42.198 21.7189Z" fill="#F67C01"/>
<path d="M42.7666 27.5118C42.9733 26.8259 43.9223 26.2386 44.8055 26.2903C45.3411 26.3232 45.8203 26.5252 46.2666 26.8024C46.3841 26.8728 46.478 26.9621 46.3183 27.0983C45.67 27.648 45.0029 28.1648 44.1384 28.3339C43.8237 28.395 43.5136 28.3715 43.2129 28.2869C43.1143 28.2588 42.9874 28.2353 42.9592 28.1272C42.9357 28.0145 43.0532 27.9534 43.133 27.8923C43.5418 27.5681 44.0257 27.4037 44.6035 27.2487C44.068 27.1453 43.6498 27.2675 43.2364 27.4225C43.0955 27.4742 42.9686 27.5681 42.8136 27.5728C42.7995 27.5447 42.7854 27.5306 42.7666 27.5118Z" fill="#F67C01"/>
<path d="M25.8021 20.4035C25.5202 19.976 25.3088 19.4921 24.7873 19.1585C25.0128 19.5719 25.2477 19.8867 25.3276 20.2766C25.3558 20.3988 25.4263 20.5538 25.3182 20.6384C25.2149 20.7229 25.0739 20.6243 24.9612 20.5726C24.3739 20.3095 24.0357 19.8162 23.7914 19.2478C23.5987 18.7967 23.5001 18.3222 23.4108 17.843C23.3873 17.7115 23.4061 17.641 23.5518 17.6457C25.0551 17.6974 26.1498 18.839 25.882 20.3283C25.882 20.3424 25.8538 20.3565 25.8021 20.4035Z" fill="#F67C01"/>
<path d="M32.6711 19.2713C32.1825 19.5438 31.9335 19.9807 31.5717 20.4177C31.4731 19.7646 31.6328 19.2432 31.9805 18.7827C32.5113 18.0827 33.2536 17.8525 34.104 17.8901C34.259 17.8948 34.3577 17.9371 34.3013 18.1156C34.0288 18.9613 33.7375 19.7928 32.9764 20.3472C32.7134 20.5398 32.3234 20.817 32.1073 20.6291C31.8724 20.4224 32.2342 20.0841 32.3563 19.8116C32.4315 19.6331 32.6147 19.5203 32.6711 19.2713Z" fill="#F67C01"/>
<path d="M40.6337 16.4009C40.3048 16.5371 40.1779 16.8472 40.0182 17.1291C39.9102 17.317 39.8209 17.5143 39.7081 17.7257C39.3699 17.0163 39.6706 16.0861 40.2155 15.6163C40.5585 15.3203 40.9719 15.17 41.4088 15.076C41.5827 15.0384 41.7189 15.0713 41.686 15.2968C41.5592 16.1707 41.4417 17.0492 40.7088 17.6787C40.629 17.7492 40.5491 17.8056 40.4551 17.8479C40.3612 17.8901 40.2672 17.9183 40.1498 17.9653C40.0746 17.3593 40.3424 16.8754 40.6337 16.4009Z" fill="#F67C01"/>
<path d="M38.7872 25.6043C38.2516 26.0036 38.0684 26.5392 37.81 27.0419C37.3683 26.06 37.9697 24.8479 39.069 24.4768C39.8066 24.2278 39.8348 24.2419 39.7315 24.9936C39.6563 25.5573 39.5153 26.107 39.1677 26.5768C38.9986 26.807 38.7965 26.9902 38.5382 27.1077C38.4583 27.1453 38.369 27.2298 38.2845 27.1593C38.2046 27.0936 38.2375 26.9855 38.2516 26.8963C38.308 26.4499 38.4959 26.0553 38.7872 25.6043Z" fill="#F67C01"/>
<path d="M28.8512 9.75303C28.6632 10.0537 28.6492 10.3638 28.5599 10.7208C28.231 10.2463 28.1277 9.77652 28.2498 9.29732C28.4236 8.60671 28.8747 8.12751 29.5324 7.84093C29.7062 7.76577 29.7955 7.81275 29.819 7.99597C29.9035 8.73356 29.9787 9.47115 29.6075 10.1665C29.5888 10.1993 29.5747 10.2275 29.5559 10.2557C29.4337 10.4718 29.2411 10.7396 29.0344 10.6973C28.7995 10.6504 28.931 10.3215 28.9122 10.1148C28.8981 10.0114 28.9451 9.90807 28.8512 9.75303Z" fill="#F67C01"/>
<path d="M32.8212 11.703C32.342 11.8486 32.0367 12.2292 31.6796 12.5815C31.5669 12.4124 31.6467 12.2714 31.6749 12.1399C31.9051 11.1204 32.9763 10.552 33.9582 10.7493C34.0756 10.7728 34.1743 10.8198 34.1179 10.9513C33.7749 11.7594 33.3803 12.5345 32.4877 12.8869C32.342 12.9433 32.1353 13.0607 32.0367 12.9292C31.9333 12.7929 32.0742 12.6097 32.1776 12.4688C32.3655 12.1916 32.5816 11.9379 32.8212 11.703Z" fill="#F67C01"/>
<path d="M42.8132 27.5632C42.7805 27.6007 42.7336 27.6288 42.7056 27.5867C42.6681 27.5352 42.7336 27.5258 42.7664 27.5071C42.7851 27.5305 42.7992 27.5445 42.8132 27.5632Z" fill="#F67C01"/>
<path d="M18.535 22.3538C18.5113 22.3633 18.4685 22.3824 18.4637 22.3776C18.44 22.3443 18.4637 22.3253 18.497 22.3206C18.5065 22.3301 18.5208 22.3396 18.535 22.3538Z" fill="#05A93D"/>
<path d="M15.9747 17.8721C15.9652 17.8483 15.9509 17.8246 15.9414 17.8008C15.9699 17.8055 15.9937 17.8103 16.0222 17.815C16.0032 17.8341 15.9889 17.8531 15.9747 17.8721Z" fill="#05A93D"/>
<path d="M13.8464 14.8459C13.8511 14.8697 13.8606 14.8982 13.8701 14.922C13.8464 14.9125 13.8226 14.903 13.7988 14.8935C13.8131 14.8792 13.8274 14.8602 13.8464 14.8459Z" fill="#F67C01"/>
<path d="M21.3681 19.8071C21.4014 19.8119 21.4252 19.8309 21.4014 19.8642C21.3966 19.8689 21.3538 19.8499 21.3301 19.8404C21.3443 19.8309 21.3586 19.8166 21.3681 19.8071Z" fill="#FEFEFD"/>
<path d="M31.1061 28.2681L31.1109 28.2919L31.0918 28.2872L31.1061 28.2681Z" fill="#FEFEFD"/>
<path d="M23.5142 30.4342L23.4951 30.439V30.4199L23.5142 30.4342Z" fill="#FEFEFD"/>
</g>
<path d="M28.1085 36.6821C28.0333 37.7015 28.3481 47.0459 28.193 48.056C28.1367 48.4224 28.2494 48.6245 28.5548 48.803C30.4246 49.907 32.4072 50.0949 34.4743 49.4936C36.2314 48.9815 37.979 48.4412 39.8113 48.2439C41.8549 48.0231 43.814 48.3379 45.7167 49.0708C46.0268 49.1882 46.3697 49.2681 46.7033 49.2869C47.9107 49.362 49.1275 49.3855 50.302 49.0285C50.7859 48.8828 51.2416 48.6292 51.6785 48.3755C52.0778 48.1453 52.3832 48.1218 52.6228 48.4083C52.8483 48.6808 52.7872 49.0332 52.4443 49.3151C51.6832 49.9493 50.7624 50.2124 49.7993 50.3721C49.5221 50.4191 49.2449 50.4567 48.8362 50.5225C49.0664 50.6493 49.1838 50.7245 49.3107 50.7809C50.5416 51.3164 51.7631 51.8614 53.1208 52.0164C53.4825 52.054 53.6893 52.3406 53.6423 52.6648C53.5859 53.0265 53.3369 53.2332 52.9893 53.1815C52.3503 53.0829 51.6832 53.0077 51.0913 52.7634C49.5127 52.1198 47.9436 51.4433 46.4261 50.6869C43.4288 49.1929 40.3469 49.0567 37.1616 49.9681C36.8374 50.0621 36.7576 50.1842 36.8844 50.5037C37.3636 51.7158 38.3361 52.3406 39.5435 52.646C40.2247 52.8198 40.9341 52.8856 41.6294 52.9748C43.0106 53.1534 43.1845 53.2896 43.5556 54.6285C43.5603 54.6426 43.5556 54.652 43.5509 54.7037C43.4945 54.699 43.4241 54.7131 43.3771 54.6849C42.4657 54.2292 41.4744 54.1399 40.4784 54.046C39.52 53.9567 38.6086 53.6983 37.7723 53.2285C36.781 52.6742 36.0622 51.8849 35.7099 50.8043C35.63 50.5553 35.5502 50.4097 35.2307 50.5178C33.1213 51.2319 31.0213 51.2413 28.9541 50.3674C28.9118 50.3486 28.8508 50.358 28.7239 50.3533C28.7944 50.5084 28.8367 50.6258 28.8978 50.7339C30.3119 53.205 32.4964 54.6567 35.2495 55.3661C36.2173 55.6151 37.1992 55.8547 38.1435 56.1742C39.5529 56.6487 40.7462 57.4849 41.8032 58.5044C42.8791 59.538 44.0959 60.3273 45.5523 60.7548C46.0315 60.8957 46.21 61.1823 46.0972 61.5346C45.9845 61.8917 45.6415 62.0044 45.1576 61.8729C43.5603 61.4313 42.2261 60.5669 41.0469 59.4487C40.8073 59.2232 40.5583 59.0165 40.3093 58.7957C40.2811 58.8145 40.2529 58.8333 40.2247 58.8521C40.3422 59.3501 40.4784 59.8434 40.5771 60.346C40.8307 61.6145 40.826 62.8877 40.5348 64.1514C40.4314 64.5978 40.1354 64.8515 39.7925 64.7857C39.4072 64.7105 39.2287 64.3911 39.3415 63.9025C39.8113 61.8353 39.4072 59.8856 38.5287 57.997C38.3596 57.6306 38.1106 57.391 37.716 57.2829C36.6589 56.9963 35.5971 56.7098 34.5401 56.4091C31.726 55.6104 29.485 54.0507 27.9675 51.5607C27.9206 51.4856 27.8548 51.4198 27.7326 51.2694C27.6998 51.4809 27.6622 51.603 27.6669 51.7205C27.7044 53.0782 27.742 54.4312 27.7843 55.789C27.7984 56.1742 27.9863 56.4326 28.3011 56.6816C30.683 58.5326 32.6092 60.7313 33.6944 63.5595C33.6991 63.5736 33.7085 63.583 33.7085 63.5971C33.9481 65.1051 35.1649 65.5045 36.4052 65.8146C36.8891 65.9367 37.4294 65.8897 37.9368 65.8803C38.3643 65.8709 38.6838 66.0495 38.726 66.3924C38.7683 66.7213 38.5334 66.9891 38.1247 67.0642C37.0582 67.2521 36.0482 67.0407 35.0569 66.6649C34.9723 66.632 34.883 66.6038 34.7045 66.5427C34.7609 66.7495 34.7891 66.8951 34.8408 67.0313C35.3622 68.3092 35.9589 69.5448 36.8797 70.6018C37.1334 70.8931 37.1052 71.2314 36.8421 71.4569C36.5884 71.673 36.2032 71.6777 35.973 71.3723C35.4562 70.677 34.9347 69.9723 34.5119 69.2159C33.671 67.7126 33.1964 66.0729 32.6891 64.438C31.9374 62.0232 30.3917 60.1158 28.5266 58.4292C28.4984 58.4058 28.4561 58.4011 28.3434 58.3541C28.3716 58.5561 28.3904 58.7111 28.4186 58.8709C28.6722 60.2192 28.9635 61.5581 29.1702 62.9159C29.33 63.9682 29.1843 65.0159 28.8837 66.0354C28.5031 67.3038 28.8273 68.4736 29.8749 69.2864C31.0494 70.2072 31.5474 71.4099 31.5568 72.8475C31.5568 72.9509 31.5568 73.0636 31.5333 73.167C31.4723 73.4958 31.2796 73.6932 30.9273 73.7025C30.6031 73.7072 30.3729 73.4629 30.3307 73.1106C30.2743 72.622 30.279 72.1146 30.1286 71.6589C29.9971 71.2549 29.7199 70.8837 29.4521 70.5455C29.2595 70.2965 28.9635 70.1273 28.7333 69.9018C28.5172 69.6857 28.3293 69.4414 28.0803 69.1502C28.0427 69.4038 28.0145 69.6012 27.9816 69.7985C27.7185 71.4616 27.7373 73.1153 28.1696 74.7549C28.1743 74.769 28.1743 74.7784 28.179 74.7925C28.2964 75.2858 28.1555 75.6052 27.7796 75.6945C27.4132 75.7838 27.1172 75.5677 26.995 75.0744C26.887 74.6328 26.7836 74.1911 26.7179 73.7448C26.436 71.8186 26.6286 69.9206 27.0702 68.0367C27.3474 66.8716 27.6716 65.7206 27.9347 64.5555C28.0192 64.1749 27.991 63.7709 28.0192 63.3763C27.9534 63.3293 27.8877 63.2776 27.8172 63.2306C27.7749 63.3387 27.7655 63.4655 27.6904 63.5501C27.2159 64.1092 26.7648 64.7011 26.234 65.2085C25.4118 65.9931 24.8246 66.8528 24.8574 68.032C24.8668 68.4032 24.5991 68.6616 24.2655 68.671C23.9319 68.6757 23.6688 68.4361 23.65 68.0602C23.5843 66.834 24.0447 65.7958 24.8574 64.889C25.097 64.6212 25.3742 64.3816 25.642 64.1327C26.5252 63.3105 27.1219 62.3004 27.5447 61.187C27.587 61.0789 27.6293 60.9474 27.6058 60.8393C27.3897 59.8528 27.1595 58.8709 26.9246 57.8561C26.8165 57.889 26.7414 57.8937 26.6991 57.9266C24.6695 59.6132 22.9829 61.5534 22.0668 64.0434C21.6158 65.2696 21.2635 66.5287 20.803 67.7501C20.3614 68.9293 19.7648 70.0381 18.9708 71.0341C18.8956 71.128 18.8205 71.222 18.7359 71.3112C18.4117 71.6589 18.0594 71.7153 17.7775 71.4663C17.4909 71.2173 17.5097 70.8931 17.8292 70.5173C18.7641 69.4179 19.356 68.1354 19.8775 66.8152C19.901 66.7589 19.8916 66.6931 19.901 66.5756C19.7648 66.6179 19.6661 66.6414 19.5769 66.679C18.5997 67.0548 17.599 67.2615 16.5466 67.0877C16.0956 67.0126 15.856 66.7542 15.9077 66.4112C15.9594 66.0448 16.2741 65.8568 16.7392 65.9085C18.1346 66.0776 19.3326 65.6219 20.4131 64.8045C20.5212 64.7246 20.6104 64.579 20.648 64.4474C21.4796 61.5769 23.2601 59.336 25.4776 57.3769C25.5809 57.2876 25.6702 57.1796 25.7877 57.1185C26.5346 56.7333 26.6521 56.1601 26.5158 55.3708C26.3655 54.497 26.4172 53.595 26.3843 52.7023C26.3796 52.552 26.3843 52.397 26.3843 52.2466C26.3373 52.2184 26.2903 52.1903 26.2434 52.1668C26.2011 52.2466 26.1729 52.3359 26.1165 52.4064C24.3548 54.7554 21.94 56.0661 19.0836 56.691C18.2896 56.8648 17.5191 57.1232 16.7533 57.3863C16.5466 57.4568 16.3305 57.6494 16.2319 57.8373C15.2359 59.787 14.8084 61.8212 15.3157 63.9917C15.405 64.377 15.2359 64.6917 14.8976 64.7857C14.5735 64.8749 14.254 64.6776 14.1506 64.2877C13.7795 62.9065 13.8124 61.5206 14.113 60.1346C14.2023 59.7212 14.3151 59.3125 14.4184 58.9037C14.3855 58.8803 14.3573 58.8568 14.3292 58.8286C14.1318 58.9977 13.9251 59.1621 13.7325 59.3407C12.7036 60.3038 11.5996 61.1541 10.2372 61.6333C9.9318 61.7414 9.62643 61.8494 9.31166 61.934C8.9687 62.0279 8.63514 61.84 8.53178 61.5253C8.44252 61.2434 8.61165 60.9051 8.95461 60.8111C10.6318 60.3601 11.9566 59.3736 13.1875 58.2084C14.7661 56.7145 16.7111 55.9487 18.8205 55.5071C21.4843 54.9527 23.7158 53.7171 25.2897 51.4809C25.5058 51.1708 25.689 50.8325 25.8863 50.5084C25.8628 50.4802 25.8393 50.4567 25.8158 50.4285C25.6655 50.4708 25.5152 50.5037 25.3695 50.5553C23.4527 51.2131 21.5312 51.2037 19.6144 50.5929C19.2433 50.4755 19.0601 50.4661 18.905 50.8983C18.2661 52.6413 16.8614 53.4963 15.1137 53.8862C14.2164 54.0883 13.2909 54.1587 12.3842 54.3279C10.7352 54.6332 9.59354 55.6245 8.79957 57.0245C8.60226 57.3722 8.48481 57.7574 8.35326 58.1333C8.20762 58.5467 7.93044 58.744 7.56869 58.6501C7.23983 58.5608 7.0754 58.2507 7.16936 57.8467C7.39016 56.9212 7.85057 56.1131 8.44252 55.3708C8.5083 55.2863 8.57877 55.2064 8.64454 55.1218C8.65863 55.103 8.65393 55.0702 8.66803 54.9809C8.53179 54.9621 8.40024 54.9339 8.264 54.9198C7.48882 54.8259 6.74653 54.6238 6.07941 54.2104C5.68008 53.9614 5.57203 53.6138 5.77874 53.3037C5.97606 53.003 6.29552 52.9654 6.71365 53.1862C8.12306 53.9238 9.57475 53.9285 11.0875 53.4916C12.0036 53.2238 12.9667 53.1064 13.9016 52.8856C14.6486 52.7117 15.4097 52.5473 16.1191 52.2654C16.9272 51.9413 17.4627 51.2976 17.7775 50.4849C17.8809 50.2171 17.8245 50.0761 17.5285 49.9916C14.3479 49.0755 11.266 49.1976 8.264 50.6869C6.74184 51.4433 5.17269 52.1151 3.59885 52.7681C3.04449 52.9983 2.42434 53.0876 1.8277 53.1862C1.35789 53.2661 1.05252 53.0453 1.00554 52.6742C0.958559 52.3171 1.21225 52.0728 1.69615 52.007C3.08677 51.8144 4.34584 51.246 5.60021 50.6728C5.6425 50.654 5.67538 50.607 5.73646 50.5506C5.13041 50.4332 4.53846 50.3815 4.00288 50.1936C3.38744 49.9775 2.79079 49.6768 2.23173 49.3386C1.8183 49.0896 1.78541 48.7137 2.03441 48.4224C2.27871 48.1359 2.59817 48.1171 2.96932 48.4083C3.83845 49.0802 4.87202 49.2164 5.91498 49.3151C6.07472 49.3292 6.23915 49.3245 6.40358 49.3339C7.61567 49.4231 8.75259 49.1741 9.89891 48.7748C12.2902 47.9385 14.7332 48.0607 17.1621 48.6761C18.3554 48.9815 19.5299 49.3761 20.7279 49.6533C22.7809 50.1278 24.7165 49.7755 26.5205 48.709C26.7695 48.5587 26.9152 48.3802 26.9387 48.0795C27.0843 46.3553 26.8588 38.3921 26.9246 36.668" fill="#05A93D"/>
<path d="M28.1085 36.6821C28.0333 37.7015 28.3481 47.0459 28.193 48.056C28.1367 48.4224 28.2494 48.6245 28.5548 48.803C30.4246 49.907 32.4072 50.0949 34.4743 49.4936C36.2314 48.9815 37.979 48.4412 39.8113 48.2439C41.8549 48.0231 43.814 48.3379 45.7167 49.0708C46.0268 49.1882 46.3697 49.2681 46.7033 49.2869C47.9107 49.362 49.1275 49.3855 50.302 49.0285C50.7859 48.8828 51.2416 48.6292 51.6785 48.3755C52.0778 48.1453 52.3832 48.1218 52.6228 48.4083C52.8483 48.6808 52.7872 49.0332 52.4443 49.3151C51.6832 49.9493 50.7624 50.2124 49.7993 50.3721C49.5221 50.4191 49.2449 50.4567 48.8362 50.5225C49.0664 50.6493 49.1838 50.7245 49.3107 50.7809C50.5416 51.3164 51.7631 51.8614 53.1208 52.0164C53.4825 52.054 53.6893 52.3406 53.6423 52.6648C53.5859 53.0265 53.3369 53.2332 52.9893 53.1815C52.3503 53.0829 51.6832 53.0077 51.0912 52.7634C49.5127 52.1198 47.9436 51.4433 46.4261 50.6869C43.4288 49.1929 40.3469 49.0567 37.1616 49.9681C36.8374 50.0621 36.7576 50.1842 36.8844 50.5037C37.3636 51.7158 38.3361 52.3406 39.5435 52.646C40.2247 52.8198 40.9341 52.8856 41.6294 52.9748C43.0106 53.1534 43.1845 53.2896 43.5556 54.6285C43.5603 54.6426 43.5556 54.652 43.5509 54.7037C43.4945 54.699 43.4241 54.7131 43.3771 54.6849C42.4657 54.2292 41.4744 54.1399 40.4784 54.046C39.52 53.9567 38.6086 53.6983 37.7723 53.2285C36.781 52.6742 36.0622 51.8849 35.7099 50.8043C35.63 50.5553 35.5502 50.4097 35.2307 50.5178C33.1213 51.2319 31.0213 51.2413 28.9541 50.3674C28.9118 50.3486 28.8508 50.358 28.7239 50.3533C28.7944 50.5084 28.8367 50.6258 28.8978 50.7339C30.3119 53.205 32.4964 54.6567 35.2495 55.3661C36.2173 55.6151 37.1992 55.8547 38.1435 56.1742C39.5529 56.6487 40.7462 57.4849 41.8032 58.5044C42.8791 59.538 44.0959 60.3273 45.5523 60.7548C46.0315 60.8957 46.21 61.1823 46.0972 61.5346C45.9845 61.8917 45.6415 62.0044 45.1576 61.8729C43.5603 61.4313 42.2261 60.5669 41.0469 59.4487C40.8073 59.2232 40.5583 59.0165 40.3093 58.7957C40.2811 58.8145 40.2529 58.8333 40.2247 58.8521C40.3422 59.3501 40.4784 59.8434 40.5771 60.346C40.8307 61.6145 40.8261 62.8877 40.5348 64.1514C40.4314 64.5978 40.1354 64.8515 39.7925 64.7857C39.4072 64.7105 39.2287 64.391 39.3415 63.9025C39.8113 61.8353 39.4072 59.8856 38.5287 57.997C38.3596 57.6306 38.1106 57.391 37.716 57.2829C36.6589 56.9963 35.5971 56.7098 34.5401 56.4091C31.726 55.6104 29.485 54.0507 27.9675 51.5607C27.9206 51.4856 27.8548 51.4198 27.7326 51.2694C27.6998 51.4809 27.6622 51.603 27.6669 51.7205C27.7044 53.0782 27.742 54.4312 27.7843 55.789C27.7984 56.1742 27.9863 56.4326 28.3011 56.6816C30.683 58.5326 32.6092 60.7313 33.6944 63.5595C33.6991 63.5736 33.7085 63.583 33.7085 63.5971C33.9481 65.1051 35.1649 65.5045 36.4052 65.8145C36.8891 65.9367 37.4294 65.8897 37.9368 65.8803C38.3643 65.8709 38.6837 66.0495 38.726 66.3924C38.7683 66.7213 38.5334 66.9891 38.1247 67.0642C37.0582 67.2521 36.0482 67.0407 35.0569 66.6649C34.9723 66.632 34.883 66.6038 34.7045 66.5427C34.7609 66.7495 34.7891 66.8951 34.8408 67.0313C35.3622 68.3092 35.9589 69.5448 36.8797 70.6018C37.1334 70.8931 37.1052 71.2314 36.8421 71.4569C36.5884 71.673 36.2032 71.6777 35.973 71.3723C35.4562 70.677 34.9347 69.9723 34.5119 69.2159C33.671 67.7126 33.1964 66.0729 32.6891 64.438C31.9374 62.0232 30.3917 60.1158 28.5266 58.4292C28.4984 58.4058 28.4561 58.4011 28.3434 58.3541C28.3716 58.5561 28.3904 58.7111 28.4186 58.8709C28.6722 60.2192 28.9635 61.5581 29.1702 62.9159C29.33 63.9682 29.1843 65.0159 28.8837 66.0354C28.5031 67.3038 28.8273 68.4736 29.8749 69.2864C31.0494 70.2072 31.5474 71.4099 31.5568 72.8475C31.5568 72.9509 31.5568 73.0636 31.5333 73.167C31.4723 73.4958 31.2797 73.6932 30.9273 73.7025C30.6031 73.7072 30.3729 73.4629 30.3306 73.1106C30.2743 72.622 30.279 72.1146 30.1286 71.6589C29.9971 71.2549 29.7199 70.8837 29.4521 70.5455C29.2595 70.2965 28.9635 70.1273 28.7333 69.9018C28.5172 69.6857 28.3293 69.4414 28.0803 69.1502C28.0427 69.4038 28.0145 69.6012 27.9816 69.7985C27.7185 71.4616 27.7373 73.1153 28.1696 74.7549C28.1743 74.769 28.1743 74.7784 28.179 74.7925C28.2964 75.2858 28.1555 75.6052 27.7796 75.6945C27.4132 75.7838 27.1172 75.5677 26.995 75.0744C26.887 74.6328 26.7836 74.1911 26.7179 73.7448C26.436 71.8186 26.6286 69.9206 27.0702 68.0367C27.3474 66.8716 27.6716 65.7206 27.9347 64.5555C28.0192 64.1749 27.991 63.7709 28.0192 63.3763C27.9534 63.3293 27.8877 63.2776 27.8172 63.2306C27.7749 63.3387 27.7655 63.4655 27.6904 63.5501C27.2159 64.1092 26.7648 64.7011 26.234 65.2085C25.4118 65.9931 24.8246 66.8528 24.8574 68.032C24.8668 68.4032 24.5991 68.6616 24.2655 68.671C23.9319 68.6757 23.6688 68.4361 23.65 68.0602C23.5843 66.834 24.0447 65.7958 24.8574 64.889C25.097 64.6212 25.3742 64.3816 25.642 64.1327C26.5252 63.3105 27.1219 62.3004 27.5447 61.187C27.587 61.0789 27.6293 60.9474 27.6058 60.8393C27.3897 59.8528 27.1595 58.8709 26.9246 57.8561C26.8165 57.889 26.7414 57.8937 26.6991 57.9266C24.6695 59.6132 22.9829 61.5534 22.0668 64.0434C21.6158 65.2696 21.2635 66.5287 20.803 67.7501C20.3614 68.9293 19.7648 70.0381 18.9708 71.0341C18.8956 71.128 18.8205 71.222 18.7359 71.3112C18.4117 71.6589 18.0594 71.7153 17.7775 71.4663C17.4909 71.2173 17.5097 70.8931 17.8292 70.5173C18.7641 69.4179 19.356 68.1354 19.8775 66.8152C19.901 66.7589 19.8916 66.6931 19.901 66.5756C19.7648 66.6179 19.6661 66.6414 19.5769 66.679C18.5997 67.0548 17.599 67.2615 16.5466 67.0877C16.0956 67.0126 15.856 66.7542 15.9077 66.4112C15.9594 66.0448 16.2741 65.8568 16.7392 65.9085C18.1346 66.0776 19.3326 65.6219 20.4131 64.8045C20.5212 64.7246 20.6104 64.579 20.648 64.4474C21.4796 61.5769 23.2601 59.336 25.4776 57.3769C25.5809 57.2876 25.6702 57.1796 25.7877 57.1185C26.5346 56.7333 26.6521 56.1601 26.5158 55.3708C26.3655 54.497 26.4172 53.595 26.3843 52.7023C26.3796 52.552 26.3843 52.397 26.3843 52.2466C26.3373 52.2184 26.2903 52.1903 26.2434 52.1668C26.2011 52.2466 26.1729 52.3359 26.1165 52.4064C24.3548 54.7554 21.94 56.0661 19.0836 56.691C18.2896 56.8648 17.5191 57.1232 16.7533 57.3863C16.5466 57.4568 16.3305 57.6494 16.2319 57.8373C15.2359 59.787 14.8084 61.8212 15.3157 63.9917C15.405 64.377 15.2359 64.6917 14.8976 64.7857C14.5735 64.8749 14.254 64.6776 14.1506 64.2877C13.7795 62.9065 13.8124 61.5206 14.113 60.1346C14.2023 59.7212 14.3151 59.3125 14.4184 58.9037C14.3855 58.8803 14.3573 58.8568 14.3292 58.8286C14.1318 58.9977 13.9251 59.1621 13.7325 59.3407C12.7036 60.3038 11.5996 61.1541 10.2372 61.6333C9.9318 61.7414 9.62643 61.8494 9.31166 61.934C8.9687 62.0279 8.63514 61.84 8.53178 61.5253C8.44252 61.2434 8.61165 60.9051 8.95461 60.8111C10.6318 60.3601 11.9566 59.3736 13.1875 58.2084C14.7661 56.7145 16.7111 55.9487 18.8205 55.5071C21.4843 54.9527 23.7158 53.7171 25.2897 51.4809C25.5058 51.1708 25.689 50.8325 25.8863 50.5084C25.8628 50.4802 25.8393 50.4567 25.8158 50.4285C25.6655 50.4708 25.5152 50.5037 25.3695 50.5553C23.4527 51.2131 21.5312 51.2037 19.6144 50.5929C19.2433 50.4755 19.0601 50.4661 18.905 50.8983C18.2661 52.6413 16.8614 53.4963 15.1137 53.8862C14.2164 54.0883 13.2909 54.1587 12.3842 54.3279C10.7352 54.6332 9.59354 55.6245 8.79957 57.0245C8.60226 57.3722 8.4848 57.7574 8.35326 58.1333C8.20762 58.5467 7.93044 58.744 7.56869 58.6501C7.23983 58.5608 7.0754 58.2507 7.16936 57.8467C7.39016 56.9212 7.85057 56.1131 8.44252 55.3708C8.5083 55.2863 8.57877 55.2064 8.64454 55.1218C8.65863 55.103 8.65393 55.0702 8.66803 54.9809C8.53178 54.9621 8.40024 54.9339 8.264 54.9198C7.48882 54.8259 6.74653 54.6238 6.07941 54.2104C5.68008 53.9614 5.57203 53.6138 5.77874 53.3037C5.97606 53.003 6.29552 52.9654 6.71365 53.1862C8.12306 53.9238 9.57475 53.9285 11.0875 53.4916C12.0036 53.2238 12.9667 53.1064 13.9016 52.8856C14.6486 52.7117 15.4097 52.5473 16.1191 52.2654C16.9272 51.9413 17.4627 51.2976 17.7775 50.4849C17.8809 50.2171 17.8245 50.0761 17.5285 49.9916C14.3479 49.0755 11.266 49.1976 8.264 50.6869C6.74184 51.4433 5.17269 52.1151 3.59885 52.7681C3.04449 52.9983 2.42434 53.0876 1.8277 53.1862C1.35789 53.2661 1.05252 53.0453 1.00554 52.6742C0.958559 52.3171 1.21225 52.0728 1.69615 52.007C3.08677 51.8144 4.34584 51.246 5.60021 50.6728C5.6425 50.654 5.67538 50.607 5.73646 50.5506C5.13041 50.4332 4.53846 50.3815 4.00288 50.1936C3.38744 49.9775 2.79079 49.6768 2.23173 49.3386C1.8183 49.0896 1.78541 48.7137 2.03441 48.4224C2.27871 48.1359 2.59817 48.1171 2.96932 48.4083C3.83845 49.0802 4.87202 49.2164 5.91498 49.3151C6.07472 49.3292 6.23915 49.3245 6.40358 49.3339C7.61567 49.4231 8.75259 49.1741 9.89891 48.7748C12.2902 47.9385 14.7332 48.0607 17.1621 48.6761C18.3554 48.9815 19.5299 49.3761 20.7279 49.6533C22.7809 50.1278 24.7165 49.7755 26.5205 48.709C26.7695 48.5587 26.9152 48.3802 26.9387 48.0795C27.0843 46.3553 26.8588 38.3921 26.9246 36.668" stroke="#05A93D" stroke-width="0.469803"/>
<path d="M47.6473 58.3402C47.6426 58.2039 47.6191 58.0865 47.5722 58.0066C47.1822 57.3066 46.7782 56.616 46.3695 55.9207C46.346 55.8784 46.3131 55.8408 46.2661 55.7798C46.252 55.7657 46.2379 55.7469 46.2191 55.7281C46.1815 55.6811 46.1346 55.6294 46.0876 55.5684L45.8198 55.2301L46.2473 55.1878C46.3131 55.1831 46.3742 55.1737 46.4305 55.169C46.5809 55.1549 46.6889 55.1455 46.8017 55.1314C47.5722 55.0375 48.291 54.8402 48.9158 54.4408C49.0426 54.361 49.099 54.2717 49.1178 54.2012C49.1366 54.1355 49.1272 54.0603 49.0708 53.9851C49.0098 53.8959 48.9299 53.8442 48.85 53.8301C48.7655 53.8113 48.6574 53.8254 48.5259 53.8959C47.7366 54.3328 46.8862 54.4925 46.0077 54.5348H46.003H45.9983C44.9366 54.5301 44.3305 54.1401 43.809 53.769C43.7902 53.7549 43.7668 53.7408 43.748 53.7267C43.3909 53.473 43.0761 53.2522 42.6533 53.1536C42.7144 53.2616 42.7849 53.3838 42.8459 53.5059C42.9681 53.7361 43.0902 53.9804 43.1748 54.1777C43.2171 54.2764 43.25 54.3657 43.2735 54.4408C43.2829 54.4784 43.2923 54.5207 43.297 54.5677C43.297 54.5818 43.297 54.6006 43.297 54.624C43.3862 54.6945 43.5412 54.7885 43.7292 54.8918C43.8795 54.9717 44.0392 55.0563 44.1943 55.1361C44.2272 55.1549 44.26 55.1737 44.2929 55.1878C44.4668 55.2771 44.6312 55.3663 44.7299 55.4321C45.5661 55.9912 46.2003 56.71 46.6138 57.5885C46.6842 57.7435 46.7453 57.9033 46.797 58.0536C46.8017 58.0724 46.8111 58.0912 46.8158 58.11C46.8628 58.2415 46.905 58.3684 46.9567 58.4858C46.999 58.5845 47.0554 58.6362 47.1118 58.6691C47.1728 58.6972 47.2621 58.7113 47.3842 58.6878L47.6473 58.3402ZM47.6473 58.3402C47.652 58.4482 47.6285 58.5187 47.591 58.5657C47.5581 58.6127 47.4923 58.655 47.3748 58.6785L47.6473 58.3402Z" fill="#05A93D"/>
<path d="M47.6473 58.3402C47.6426 58.2039 47.6191 58.0865 47.5722 58.0066C47.1822 57.3066 46.7782 56.616 46.3695 55.9207C46.346 55.8784 46.3131 55.8408 46.2661 55.7798C46.252 55.7657 46.2379 55.7469 46.2191 55.7281C46.1815 55.6811 46.1346 55.6294 46.0876 55.5684L45.8198 55.2301L46.2473 55.1878C46.3131 55.1831 46.3742 55.1737 46.4305 55.169C46.5809 55.1549 46.6889 55.1455 46.8017 55.1314C47.5722 55.0375 48.291 54.8402 48.9158 54.4408C49.0426 54.361 49.099 54.2717 49.1178 54.2012C49.1366 54.1355 49.1272 54.0603 49.0708 53.9851C49.0098 53.8959 48.9299 53.8442 48.85 53.8301C48.7655 53.8113 48.6574 53.8254 48.5259 53.8959C47.7366 54.3328 46.8862 54.4925 46.0077 54.5348H46.003H45.9983C44.9366 54.5301 44.3305 54.1401 43.809 53.769C43.7902 53.7549 43.7668 53.7408 43.748 53.7267C43.3909 53.473 43.0761 53.2522 42.6533 53.1536C42.7144 53.2616 42.7849 53.3838 42.8459 53.5059C42.9681 53.7361 43.0902 53.9804 43.1748 54.1777C43.2171 54.2764 43.25 54.3657 43.2735 54.4408C43.2829 54.4784 43.2923 54.5207 43.297 54.5677C43.297 54.5818 43.297 54.6006 43.297 54.624C43.3862 54.6945 43.5412 54.7885 43.7292 54.8918C43.8795 54.9717 44.0392 55.0563 44.1943 55.1361C44.2272 55.1549 44.26 55.1737 44.2929 55.1878C44.4668 55.2771 44.6312 55.3663 44.7299 55.4321C45.5661 55.9912 46.2003 56.71 46.6138 57.5885C46.6842 57.7435 46.7453 57.9033 46.797 58.0536C46.8017 58.0724 46.8111 58.0912 46.8158 58.11C46.8628 58.2415 46.905 58.3684 46.9567 58.4858C46.999 58.5845 47.0554 58.6362 47.1118 58.6691C47.1728 58.6972 47.2621 58.7113 47.3842 58.6878L47.6473 58.3402ZM47.6473 58.3402C47.652 58.4482 47.6285 58.5187 47.591 58.5657C47.5581 58.6127 47.4923 58.655 47.3748 58.6785L47.6473 58.3402Z" stroke="#05A93D" stroke-width="0.469803"/>
</svg>
