<svg width="13" height="11" viewBox="0 0 13 11" fill="none" xmlns="http://www.w3.org/2000/svg">
<path d="M11.5 0.5H1.5C0.8125 0.5 0.25625 1.0625 0.25625 1.75L0.25 9.25C0.25 9.9375 0.8125 10.5 1.5 10.5H11.5C12.1875 10.5 12.75 9.9375 12.75 9.25V1.75C12.75 1.0625 12.1875 0.5 11.5 0.5ZM11.25 3.15625L6.83125 5.91875C6.63125 6.04375 6.36875 6.04375 6.16875 5.91875L1.75 3.15625C1.68733 3.12107 1.63245 3.07354 1.58868 3.01653C1.54491 2.95953 1.51316 2.89424 1.49536 2.82461C1.47756 2.75498 1.47406 2.68246 1.4851 2.61144C1.49613 2.54042 1.52146 2.47238 1.55955 2.41144C1.59764 2.35049 1.6477 2.29791 1.7067 2.25687C1.7657 2.21583 1.83242 2.18719 1.90281 2.17269C1.9732 2.15818 2.0458 2.1581 2.11622 2.17247C2.18664 2.18683 2.25341 2.21533 2.3125 2.25625L6.5 4.875L10.6875 2.25625C10.7466 2.21533 10.8134 2.18683 10.8838 2.17247C10.9542 2.1581 11.0268 2.15818 11.0972 2.17269C11.1676 2.18719 11.2343 2.21583 11.2933 2.25687C11.3523 2.29791 11.4024 2.35049 11.4404 2.41144C11.4785 2.47238 11.5039 2.54042 11.5149 2.61144C11.5259 2.68246 11.5224 2.75498 11.5046 2.82461C11.4868 2.89424 11.4551 2.95953 11.4113 3.01653C11.3676 3.07354 11.3127 3.12107 11.25 3.15625Z" fill="#05A93D"/>
</svg>
