<svg width="13" height="15" viewBox="0 0 13 15" fill="none" xmlns="http://www.w3.org/2000/svg">
<path d="M10.5553 2.59485C8.3156 0.311481 4.68429 0.311481 2.44456 2.59485C1.91279 3.13329 1.49025 3.77647 1.20175 4.48658C0.913262 5.19669 0.764648 5.9594 0.764648 6.72989C0.764648 7.50038 0.913262 8.2631 1.20175 8.97321C1.49025 9.68332 1.91279 10.3265 2.44456 10.8649L6.49959 15L10.5553 10.8649C11.0871 10.3265 11.5096 9.68332 11.7981 8.97321C12.0866 8.2631 12.2352 7.50038 12.2352 6.72989C12.2352 5.9594 12.0866 5.19669 11.7981 4.48658C11.5096 3.77647 11.0871 3.13329 10.5553 2.59485ZM6.49959 8.6841C6.02067 8.6841 5.57115 8.49091 5.23203 8.14019C4.89632 7.79152 4.70779 7.31906 4.70779 6.82649C4.70779 6.33392 4.89632 5.86146 5.23203 5.51279C5.57043 5.16207 6.02067 4.96888 6.49959 4.96888C6.9785 4.96888 7.42874 5.16207 7.76714 5.51279C8.10285 5.86146 8.29138 6.33392 8.29138 6.82649C8.29138 7.31906 8.10285 7.79152 7.76714 8.14019C7.42874 8.49091 6.9785 8.6841 6.49959 8.6841Z" fill="#05A93D"/>
</svg>
