<svg width="10" height="14" viewBox="0 0 10 14" fill="none" xmlns="http://www.w3.org/2000/svg">
<path d="M2.18097 0.626036L2.89897 0.396703C3.57097 0.182036 4.28964 0.529369 4.57764 1.20804L5.15097 2.56004C5.40097 3.1487 5.2623 3.84137 4.8083 4.27204L3.5463 5.4707C3.6243 6.18804 3.86497 6.89404 4.26897 7.5887C4.65286 8.26082 5.16768 8.8491 5.78297 9.3187L7.3003 8.81204C7.87497 8.6207 8.50097 8.84137 8.85364 9.35937L9.67497 10.566C10.0856 11.1687 10.0116 11.9994 9.50297 12.51L8.95764 13.0574C8.41497 13.602 7.6403 13.8 6.92297 13.576C5.2303 13.048 3.6743 11.4807 2.2543 8.87404C0.832304 6.26337 0.330971 4.04737 0.748971 2.2287C0.924971 1.46337 1.4703 0.853369 2.1823 0.626036H2.18097Z" fill="#05A93D"/>
</svg>
